<svg width="64" height="64" viewBox="0 0 64 64" fill="none" xmlns="http://www.w3.org/2000/svg">
<rect width="64" height="64" rx="18" fill="#2C2D34"/>
<path d="M29.7241 20.6479C29.826 20.2752 30.0811 20.0428 30.458 19.8982C30.7139 19.8943 30.9322 19.8671 31.1504 19.8666C32.8832 19.863 34.6159 19.8656 36.3486 19.8618C36.463 19.8615 36.5772 19.8245 36.6914 19.8046C37.1912 19.8044 37.7982 20.3465 37.9033 20.8995C37.937 21.0766 37.9553 21.2594 37.9552 21.4396C37.9515 25.5335 37.9496 29.6274 37.9349 33.7213C37.9297 35.155 37.3787 36.3348 36.1868 37.1678C35.9314 37.3462 35.6155 37.4372 35.3296 37.5731C34.6186 37.9111 33.8759 37.9906 33.0765 37.8259C32.7056 37.6955 32.3636 37.5927 32.0215 37.4899C32.0215 37.4899 32.0271 37.4888 32.0188 37.4741C31.9737 37.4494 31.9369 37.4394 31.9 37.4293C31.9 37.4293 31.9058 37.4287 31.9001 37.4108C31.7729 37.3277 31.6514 37.2624 31.5299 37.1971C31.5299 37.1971 31.5354 37.1907 31.5298 37.1758C31.487 37.1502 31.4499 37.1395 31.4127 37.1289C31.4127 37.1289 31.4199 37.1267 31.4143 37.1106C31.3505 37.0648 31.2922 37.0352 31.234 37.0055C31.234 37.0055 31.2394 37.0044 31.2333 36.9916C31.2088 36.9671 31.1903 36.9553 31.1718 36.9436C31.1718 36.9436 31.179 36.947 31.1774 36.9296C31.1142 36.8625 31.0525 36.8129 30.9909 36.7634C30.9909 36.7634 30.9968 36.7629 30.9906 36.7504C30.966 36.7262 30.9476 36.7145 30.9292 36.7029C30.9292 36.7029 30.9356 36.7018 30.9297 36.6895C30.9053 36.6656 30.8869 36.654 30.8685 36.6424C30.8685 36.6424 30.8748 36.6411 30.869 36.6288C30.8446 36.6049 30.8261 36.5933 30.8076 36.5817C30.8076 36.5817 30.8141 36.5801 30.8082 36.568C30.7836 36.5441 30.765 36.5325 30.7463 36.5208C30.7463 36.5208 30.7536 36.5259 30.7531 36.5057C30.6863 36.4216 30.6201 36.3576 30.5539 36.2935C30.5539 36.2935 30.5588 36.2805 30.5594 36.2668C30.5416 36.2417 30.5232 36.2301 30.5048 36.2186C30.5048 36.2186 30.5109 36.2252 30.5087 36.2067C30.4672 36.1576 30.4277 36.1269 30.3883 36.0963C30.3883 36.0963 30.3927 36.0959 30.3912 36.0745C30.2535 35.8056 30.1173 35.5583 29.9811 35.3109C29.8753 34.9216 29.7695 34.5324 29.6851 34.1024C29.7166 33.9695 29.7268 33.8774 29.7448 33.7814C29.7524 33.7776 29.7564 33.7553 29.7564 33.7553C29.7564 33.7553 29.7368 33.7405 29.7333 33.7118C29.7315 33.2726 29.7333 32.8621 29.7512 32.4339C29.7728 31.0364 29.7786 29.6567 29.7816 28.277C29.7817 28.2416 29.7514 28.2062 29.7322 28.1436C29.7311 28.007 29.7331 27.8977 29.7512 27.7706C29.7733 27.7134 29.7845 27.6739 29.7845 27.6345C29.7853 26.1555 29.7855 24.6766 29.7837 23.1976C29.7837 23.1183 29.7593 23.0392 29.7575 22.9597C29.7441 22.3839 29.7326 21.808 29.7229 21.2321C29.7196 21.0374 29.7235 20.8427 29.7241 20.6479Z" fill="#9B51E0"/>
<path d="M29.1091 40.1508C29.0104 41.9824 27.4838 43.7242 25.6296 44.0858C23.9254 44.4181 22.4285 44.0162 21.1846 42.7184C21.1544 42.667 21.1358 42.6519 21.1172 42.6369C21.1172 42.6369 21.1256 42.6368 21.1192 42.6253C21.095 42.6012 21.0772 42.5886 21.0593 42.576C21.0593 42.576 21.0646 42.5763 21.0635 42.5578C21.0164 42.4937 20.9703 42.4482 20.9243 42.4026C20.9243 42.4026 20.936 42.3988 20.9328 42.3875C20.9112 42.3624 20.8929 42.3487 20.8746 42.3349C20.8746 42.3349 20.8815 42.3351 20.8803 42.3177C20.8504 42.2788 20.8219 42.2574 20.7933 42.236C20.7933 42.236 20.7961 42.2281 20.8011 42.2094C20.7477 42.118 20.6894 42.0454 20.6311 41.9727C20.6311 41.9727 20.638 41.9723 20.6385 41.9523C20.5297 41.7279 20.4204 41.5234 20.3111 41.3189C20.3111 41.3189 20.3149 41.3125 20.3237 41.2921C20.3035 41.2286 20.2743 41.1855 20.2452 41.1423C20.2452 41.1423 20.2495 41.1307 20.261 41.1065C20.2139 40.6663 20.1075 40.2508 20.1047 39.8346C20.0886 37.504 20.0982 35.1733 20.0958 32.8427C20.0956 32.7363 20.0639 32.63 20.0469 32.5236C20.0639 32.3975 20.0809 32.2713 20.1247 32.117C20.2923 31.7456 20.4332 31.4024 20.5741 31.0591C20.5741 31.0591 20.5784 31.0653 20.5943 31.0569C20.6385 30.9915 20.6668 30.9344 20.6951 30.8773C20.6951 30.8773 20.7001 30.8834 20.7118 30.8756C20.7313 30.8483 20.7392 30.8288 20.747 30.8092C20.747 30.8092 20.7589 30.827 20.769 30.8153C20.7838 30.7834 20.7886 30.7632 20.7933 30.7431C20.7933 30.7431 20.7985 30.7435 20.8175 30.7412C20.8513 30.7056 20.8661 30.6722 20.8809 30.6388C20.8809 30.6388 20.8843 30.643 20.8967 30.6352C20.9198 30.6088 20.9306 30.5902 20.9413 30.5716C20.9683 30.5381 20.9954 30.5046 21.0535 30.4593C21.0973 30.4296 21.1101 30.4117 21.1229 30.3938C21.1229 30.3938 21.1251 30.3998 21.1418 30.397C21.172 30.3673 21.1856 30.3404 21.1992 30.3136C21.1992 30.3136 21.2108 30.2956 21.2339 30.3008C21.2622 30.2897 21.2674 30.2733 21.2726 30.2569C21.2726 30.2569 21.2794 30.2513 21.2992 30.2527C21.3305 30.2367 21.342 30.2193 21.3535 30.2018C21.3535 30.2018 21.3666 30.2131 21.3759 30.2069C21.3976 30.1831 21.4101 30.1657 21.4226 30.1482C21.4226 30.1482 21.4268 30.1564 21.4434 30.1535C21.48 30.1238 21.5002 30.0969 21.5203 30.0699C21.5203 30.0699 21.5244 30.0727 21.5477 30.0734C21.7335 29.9712 21.8959 29.8683 22.0583 29.7655C22.0583 29.7655 22.0694 29.7573 22.0985 29.768C22.6088 29.6084 23.107 29.6045 23.6099 29.6095C24.6286 29.6195 25.6474 29.61 26.6661 29.6135C27.1663 29.6153 27.6665 29.6283 28.1667 29.6362C28.1667 29.6362 28.1767 29.6384 28.1802 29.6621C28.2361 29.7004 28.2885 29.715 28.3409 29.7296C28.3409 29.7296 28.3361 29.7337 28.3449 29.7452C28.3741 29.7582 28.3945 29.7598 28.4149 29.7614C28.4149 29.7614 28.4179 29.7666 28.4198 29.7867C28.4558 29.8209 28.4899 29.8351 28.5239 29.8493C28.5239 29.8493 28.5161 29.8557 28.5201 29.8738C28.587 29.9355 28.6499 29.9791 28.7129 30.0228C28.7129 30.0228 28.705 30.039 28.7107 30.047C28.7343 30.0668 28.7522 30.0785 28.77 30.0903C28.77 30.0903 28.7633 30.0942 28.7691 30.1064C28.7922 30.1307 28.8095 30.1428 28.8267 30.155C28.8267 30.155 28.8206 30.1575 28.823 30.1763C28.8737 30.251 28.922 30.3069 28.9702 30.3627C28.9702 30.3627 28.9789 30.3738 28.9683 30.4029C28.9924 30.6009 29.027 30.7698 29.0614 30.9676C29.0612 33.931 29.0607 36.8655 29.0633 39.8C29.0634 39.9169 29.0931 40.0338 29.1091 40.1508Z" fill="#00B67B"/>
<path d="M28.9459 28.1962C28.8358 28.3621 28.7258 28.528 28.5855 28.6866C28.5245 28.7124 28.4937 28.7455 28.463 28.7787C28.463 28.7787 28.4588 28.7733 28.4378 28.7716C28.0447 28.8294 27.6739 28.9261 27.3 28.9405C26.5853 28.968 25.8688 28.9445 25.1532 28.9535C25.0626 28.9547 24.9728 29.0243 24.8825 29.0621C24.8367 29.065 24.7909 29.0679 24.7165 29.0433C24.5964 28.9933 24.506 28.9624 24.4132 28.9498C24.0885 28.9059 23.7629 28.8683 23.4377 28.8282C23.2903 28.8101 23.1429 28.7919 22.9955 28.7737C22.9955 28.7737 23.0017 28.7728 22.9941 28.755C22.7509 28.6444 22.5154 28.5517 22.2798 28.459C21.1167 27.8047 20.3808 26.8074 20.1105 25.5215C19.5379 22.798 21.2445 20.3352 23.9874 19.8798C24.4407 19.8045 24.9101 19.8147 25.3723 19.8084C26.1283 19.798 26.8846 19.8065 27.6407 19.8068C28.1374 19.8071 28.5396 19.99 28.8192 20.4591C29.0532 21.0809 29.0036 21.6868 28.999 22.2867C28.9839 24.2566 28.964 26.2263 28.9459 28.1962Z" fill="#F2994A"/>
<path d="M38.4998 21.9248C38.9418 19.9197 41.4599 19.1532 43.0149 20.5284C43.6581 21.0973 44.0119 21.8012 43.9998 22.6758C43.9853 23.7241 44.0226 24.7749 43.9615 25.8201C43.8878 27.0816 42.7417 28.2353 41.5447 28.3446C40.1943 28.4678 38.9676 27.6609 38.5783 26.3735C38.501 26.1178 38.4603 25.8419 38.4567 25.5746C38.4422 24.4756 38.4472 23.3763 38.4494 22.2771C38.4497 22.1682 38.4801 22.0593 38.4998 21.9248Z" fill="#1C88F7"/>
</svg>
