<svg width="48" height="48" viewBox="0 0 48 48" fill="none" xmlns="http://www.w3.org/2000/svg">
<rect width="48" height="48" rx="24" fill="black"/>
<path d="M36 13.0909V19.6364C36 19.9257 35.8851 20.2032 35.6805 20.4078C35.4759 20.6123 35.1984 20.7273 34.9091 20.7273C34.6198 20.7273 34.3423 20.6123 34.1377 20.4078C33.9331 20.2032 33.8182 19.9257 33.8182 19.6364V15.7241L26.9536 22.59C26.7489 22.7947 26.4713 22.9097 26.1818 22.9097C25.8923 22.9097 25.6147 22.7947 25.41 22.59C25.2053 22.3853 25.0903 22.1077 25.0903 21.8182C25.0903 21.5287 25.2053 21.2511 25.41 21.0464L32.2759 14.1818H28.3636C28.0743 14.1818 27.7968 14.0669 27.5922 13.8623C27.3877 13.6577 27.2727 13.3802 27.2727 13.0909C27.2727 12.8016 27.3877 12.5241 27.5922 12.3195C27.7968 12.1149 28.0743 12 28.3636 12H34.9091C35.1984 12 35.4759 12.1149 35.6805 12.3195C35.8851 12.5241 36 12.8016 36 13.0909ZM21.0464 25.41L14.1818 32.2759V28.3636C14.1818 28.0743 14.0669 27.7968 13.8623 27.5922C13.6577 27.3877 13.3802 27.2727 13.0909 27.2727C12.8016 27.2727 12.5241 27.3877 12.3195 27.5922C12.1149 27.7968 12 28.0743 12 28.3636V34.9091C12 35.1984 12.1149 35.4759 12.3195 35.6805C12.5241 35.8851 12.8016 36 13.0909 36H19.6364C19.9257 36 20.2032 35.8851 20.4078 35.6805C20.6123 35.4759 20.7273 35.1984 20.7273 34.9091C20.7273 34.6198 20.6123 34.3423 20.4078 34.1377C20.2032 33.9331 19.9257 33.8182 19.6364 33.8182H15.7241L22.59 26.9536C22.7947 26.7489 22.9097 26.4713 22.9097 26.1818C22.9097 25.8923 22.7947 25.6147 22.59 25.41C22.3853 25.2053 22.1077 25.0903 21.8182 25.0903C21.5287 25.0903 21.2511 25.2053 21.0464 25.41Z" fill="white"/>
</svg>
