<svg width="36" height="36" viewBox="0 0 36 36" fill="none" xmlns="http://www.w3.org/2000/svg">
<path d="M31.5 18C31.5 18.2984 31.3815 18.5845 31.1705 18.7955C30.9595 19.0065 30.6734 19.125 30.375 19.125H8.3405L16.546 27.3291C16.6505 27.4336 16.7334 27.5577 16.79 27.6943C16.8465 27.8308 16.8757 27.9772 16.8757 28.125C16.8757 28.2728 16.8465 28.4192 16.79 28.5558C16.7334 28.6923 16.6505 28.8164 16.546 28.921C16.4414 29.0255 16.3174 29.1084 16.1808 29.165C16.0442 29.2215 15.8979 29.2506 15.75 29.2506C15.6022 29.2506 15.4558 29.2215 15.3193 29.165C15.1827 29.1084 15.0586 29.0255 14.9541 28.921L4.82909 18.796C4.72449 18.6915 4.64152 18.5674 4.5849 18.4308C4.52829 18.2943 4.49915 18.1479 4.49915 18C4.49915 17.8522 4.52829 17.7058 4.5849 17.5692C4.64152 17.4326 4.72449 17.3086 4.82909 17.2041L14.9541 7.07908C15.1652 6.86798 15.4515 6.74939 15.75 6.74939C16.0486 6.74939 16.3349 6.86798 16.546 7.07908C16.7571 7.29017 16.8757 7.57648 16.8757 7.87502C16.8757 8.17355 16.7571 8.45986 16.546 8.67095L8.3405 16.875H30.375C30.6734 16.875 30.9595 16.9935 31.1705 17.2045C31.3815 17.4155 31.5 17.7016 31.5 18Z" fill="white"/>
</svg>
