<svg width="17" height="16" viewBox="0 0 17 16" fill="none" xmlns="http://www.w3.org/2000/svg">
<path d="M14.4998 4.44376C14.3822 4.50471 14.2451 4.51644 14.1187 4.47635C13.9924 4.43627 13.8871 4.34767 13.8261 4.23001C13.3488 3.2872 12.6265 2.49033 11.7348 1.92314C11.6793 1.88809 11.6312 1.84245 11.5932 1.7888C11.5553 1.73516 11.5283 1.67457 11.5138 1.6105C11.4993 1.54643 11.4976 1.48012 11.5087 1.41538C11.5198 1.35063 11.5436 1.28871 11.5786 1.23314C11.6136 1.17757 11.6593 1.12946 11.7129 1.09153C11.7666 1.05361 11.8272 1.02662 11.8912 1.01211C11.9553 0.997602 12.0216 0.995855 12.0864 1.00697C12.1511 1.01808 12.213 1.04184 12.2686 1.07689C13.3077 1.74222 14.1515 2.67162 14.7136 3.77001C14.7745 3.88771 14.7863 4.0248 14.7462 4.15114C14.7061 4.27747 14.6175 4.38273 14.4998 4.44376ZM2.73172 4.50001C2.82333 4.49998 2.91316 4.47477 2.99141 4.42716C3.06967 4.37955 3.13334 4.31135 3.17547 4.23001C3.65273 3.2872 4.37511 2.49033 5.26672 1.92314C5.37894 1.85236 5.45845 1.7399 5.48775 1.6105C5.51706 1.4811 5.49375 1.34536 5.42297 1.23314C5.35219 1.12092 5.23973 1.04141 5.11033 1.01211C4.98093 0.982808 4.84519 1.00611 4.73297 1.07689C3.69385 1.74222 2.85009 2.67162 2.28797 3.77001C2.2485 3.84621 2.2293 3.93129 2.23222 4.01706C2.23515 4.10283 2.2601 4.1864 2.30468 4.25973C2.34926 4.33307 2.41196 4.39369 2.48675 4.43577C2.56154 4.47785 2.64591 4.49998 2.73172 4.50001ZM14.363 10.9963C14.4516 11.1482 14.4985 11.3207 14.4991 11.4966C14.4997 11.6724 14.4539 11.8453 14.3664 11.9978C14.2789 12.1503 14.1527 12.2771 14.0005 12.3652C13.8484 12.4534 13.6757 12.4999 13.4998 12.5H10.9498C10.8351 13.0652 10.5285 13.5733 10.082 13.9382C9.63547 14.3032 9.07653 14.5025 8.49985 14.5025C7.92317 14.5025 7.36423 14.3032 6.91772 13.9382C6.47121 13.5733 6.16461 13.0652 6.04985 12.5H3.49985C3.32411 12.4997 3.15157 12.453 2.9996 12.3648C2.84764 12.2765 2.72161 12.1498 2.63422 11.9973C2.54684 11.8448 2.50117 11.672 2.50183 11.4963C2.50249 11.3205 2.54945 11.1481 2.63797 10.9963C3.2011 10.0244 3.49985 8.64251 3.49985 7.00001C3.49985 5.67393 4.02663 4.40216 4.96432 3.46448C5.902 2.5268 7.17377 2.00001 8.49985 2.00001C9.82593 2.00001 11.0977 2.5268 12.0354 3.46448C12.9731 4.40216 13.4998 5.67393 13.4998 7.00001C13.4998 8.64189 13.7986 10.0238 14.363 10.9963ZM9.9136 12.5H7.0861C7.18969 12.7921 7.38123 13.045 7.63439 13.2239C7.88755 13.4027 8.18989 13.4987 8.49985 13.4987C8.8098 13.4987 9.11215 13.4027 9.36531 13.2239C9.61847 13.045 9.81001 12.7921 9.9136 12.5ZM13.4998 11.5C12.8348 10.3581 12.4998 8.84439 12.4998 7.00001C12.4998 5.93915 12.0784 4.92173 11.3283 4.17159C10.5781 3.42144 9.56072 3.00001 8.49985 3.00001C7.43898 3.00001 6.42157 3.42144 5.67142 4.17159C4.92128 4.92173 4.49985 5.93915 4.49985 7.00001C4.49985 8.84501 4.1636 10.3588 3.49985 11.5H13.4998Z" fill="white"/>
</svg>
