<svg width="25" height="25" viewBox="0 0 25 25" fill="none" xmlns="http://www.w3.org/2000/svg">
<path d="M22.5345 14.6945V14.6851C22.5329 14.6781 22.5307 14.6712 22.5279 14.6645C22.4657 14.4947 22.3934 14.3288 22.3114 14.1676L18.4142 5.3101C18.3767 5.22478 18.3236 5.14721 18.2576 5.08135C17.979 4.8027 17.6483 4.58166 17.2843 4.43085C16.9202 4.28005 16.5301 4.20243 16.1361 4.20243C15.742 4.20243 15.3519 4.28005 14.9879 4.43085C14.6238 4.58166 14.2931 4.8027 14.0145 5.08135C13.8743 5.22166 13.7955 5.41177 13.7951 5.6101V7.95385H10.7951V5.6101C10.7952 5.51158 10.7759 5.41401 10.7382 5.32296C10.7006 5.23191 10.6454 5.14918 10.5757 5.07947C10.2972 4.80082 9.96641 4.57978 9.60239 4.42898C9.23837 4.27817 8.84821 4.20055 8.45418 4.20055C8.06016 4.20055 7.67 4.27817 7.30598 4.42898C6.94195 4.57978 6.61121 4.80082 6.33262 5.07947C6.26667 5.14533 6.21358 5.22291 6.17606 5.30822L2.28262 14.1676C2.20061 14.3288 2.12829 14.4947 2.06606 14.6645C2.06345 14.6709 2.06126 14.6775 2.0595 14.6842C2.0595 14.6842 2.0595 14.6917 2.0595 14.6945C1.6723 15.8132 1.74157 17.0395 2.2523 18.1076C2.76304 19.1756 3.67408 19.9994 4.78799 20.4003C5.90191 20.8013 7.12895 20.7471 8.2032 20.2495C9.27745 19.752 10.1124 18.8512 10.527 17.7423C10.7096 17.2442 10.8016 16.7175 10.7989 16.187V9.45385H13.7989V16.1879C13.7961 16.7184 13.8882 17.2451 14.0707 17.7432C14.4854 18.8521 15.3203 19.7529 16.3945 20.2505C17.4688 20.748 18.6958 20.8022 19.8098 20.4012C20.9237 20.0003 21.8347 19.1765 22.3454 18.1085C22.8562 17.0405 22.9254 15.8142 22.5382 14.6954L22.5345 14.6945ZM9.11418 17.2257C8.83723 17.9647 8.28025 18.5648 7.56392 18.896C6.8476 19.2271 6.02963 19.2627 5.28726 18.995C4.54488 18.7273 3.9379 18.1778 3.59782 17.4657C3.25775 16.7535 3.21198 15.9361 3.47043 15.1904L3.64012 14.8032C3.952 14.2104 4.45332 13.739 5.06421 13.4641C5.67509 13.1893 6.36039 13.1268 7.01091 13.2866C7.66143 13.4464 8.23975 13.8194 8.65372 14.346C9.06768 14.8727 9.29347 15.5227 9.29512 16.1926V16.2038C9.29507 16.5537 9.23383 16.9008 9.11418 17.2295V17.2257ZM19.3264 19.0229C18.8729 19.1889 18.386 19.243 17.9072 19.1805C17.4283 19.1181 16.9716 18.941 16.5759 18.6642C16.1801 18.3875 15.8571 18.0193 15.6341 17.5909C15.4111 17.1626 15.2948 16.6868 15.2951 16.2038V16.1935C15.2976 15.524 15.524 14.8745 15.9382 14.3485C16.3525 13.8225 16.9308 13.4502 17.5811 13.2908C18.2315 13.1315 18.9164 13.1943 19.5269 13.4692C20.1374 13.7441 20.6384 14.2154 20.9501 14.8079L21.1198 15.1951C21.3866 15.9407 21.3477 16.7615 21.0118 17.4785C20.6758 18.1956 20.07 18.7507 19.3264 19.0229Z" fill="white"/>
</svg>
