<!DOCTYPE svg PUBLIC "-//W3C//DTD SVG 1.1//EN" "http://www.w3.org/Graphics/SVG/1.1/DTD/svg11.dtd">
<!-- Uploaded to: SVG Repo, www.svgrepo.com, Transformed by: SVG Repo Mixer Tools -->
<svg fill="#ffffff" height="800px" width="800px" version="1.1" id="Layer_1" xmlns="http://www.w3.org/2000/svg" xmlns:xlink="http://www.w3.org/1999/xlink" viewBox="0 0 512 512" xml:space="preserve" stroke="#ffffff">
<g id="SVGRepo_bgCarrier" stroke-width="0"/>
<g id="SVGRepo_tracerCarrier" stroke-linecap="round" stroke-linejoin="round"/>
<g id="SVGRepo_iconCarrier"> <g> <g> <path d="M373.119,118.63c-1.219-0.681-2.419-1.352-3.593-2.019h-0.001c-11.551-6.549-16.639-15.283-16.499-28.32 c0.001-0.038,0.001-0.075,0.001-0.113V86.42h7.262c5.81,0,10.536-4.726,10.536-10.536V31.434C370.825,14.102,356.724,0,339.391,0 H172.609c-17.333,0-31.434,14.102-31.434,31.434v44.451c0,5.81,4.726,10.536,10.536,10.536h7.262v1.759 c0,0.038,0,0.075,0.001,0.113c0.14,13.036-4.948,21.77-16.5,28.32c-1.174,0.667-2.374,1.337-3.593,2.019 c-21.601,12.077-54.244,30.328-54.244,85.952v255.375c0,28.696,23.346,52.042,52.043,52.042h238.641 c28.696,0,52.042-23.346,52.042-52.042V204.583C427.363,148.959,394.721,130.707,373.119,118.63z M162.073,31.435 c0-5.811,4.727-10.537,10.536-10.537H339.39c5.81,0,10.536,4.726,10.536,10.536v34.09h-7.349H169.423h-7.349V52.419h126.387 c5.77,0,10.449-4.678,10.449-10.449c0-5.771-4.679-10.449-10.449-10.449H162.073V31.435z M406.465,459.958 c0,17.173-13.971,31.144-31.145,31.144H136.68c-17.174,0-31.145-13.971-31.145-31.144V204.583 c0-43.365,22.137-55.742,43.545-67.711c1.256-0.702,2.492-1.393,3.702-2.079c18.18-10.307,27.295-26.005,27.09-46.662v-1.707 h152.257v1.707c-0.205,20.657,8.909,36.355,27.09,46.662c1.21,0.686,2.446,1.377,3.702,2.079 c21.407,11.969,43.544,24.346,43.544,67.711V459.958z"/> </g> </g> <g> <g> <path d="M340.684,156.983c-4.977-2.866-11.341-1.176-14.238,3.791c-2.909,4.985-1.226,11.383,3.76,14.29 c0.07,0.041,0.198,0.113,0.269,0.153c1.602,0.885,3.334,1.306,5.045,1.306c3.679,0,7.25-1.949,9.154-5.397 C347.446,166.11,345.657,159.804,340.684,156.983z"/> </g> </g> <g> <g> <path d="M367.304,174.287c-4.355-3.785-10.956-3.322-14.74,1.033c-3.786,4.355-3.323,10.956,1.032,14.74 c7.869,6.838,18.331,19.086,18.331,46.392v43.057c0,5.771,4.679,10.449,10.449,10.449c5.77,0,10.449-4.678,10.449-10.449v-43.056 C392.823,209.545,384.475,189.21,367.304,174.287z"/> </g> </g> <g> <g> <path d="M322.401,31.521h-0.137c-5.77,0-10.449,4.678-10.449,10.449c0,5.771,4.679,10.449,10.449,10.449h0.137 c5.77,0,10.449-4.678,10.449-10.449C332.85,36.199,328.171,31.521,322.401,31.521z"/> </g> </g> <g> <g> <path d="M361.21,381.329c1.425-1.136,2.801-2.349,4.11-3.657c9.085-9.085,14.087-21.165,14.086-34.015 c-0.003-25.809-20.438-46.931-45.977-48.052c5.495-7.958,8.463-17.376,8.462-27.254c-0.003-25.904-20.59-47.081-46.259-48.059 c5.497-7.959,8.465-17.378,8.464-27.257c-0.003-26.524-21.582-48.104-48.106-48.106c-0.002,0-0.002,0-0.005,0 c-12.847,0-24.926,5.003-34.01,14.086c-9.084,9.085-14.087,21.164-14.086,34.015c0.001,10.115,3.147,19.505,8.501,27.259 c-12.067,0.51-23.339,5.445-31.93,14.036c-9.084,9.084-14.087,21.164-14.086,34.014c0.001,10.11,3.144,19.497,8.495,27.249 c-12.165,0.448-23.541,5.389-32.194,14.042c-9.085,9.085-14.087,21.165-14.086,34.015c0.002,15.224,7.121,28.811,18.196,37.632 c-1.425,1.136-2.801,2.348-4.109,3.656c-9.085,9.085-14.087,21.165-14.086,34.015c0.003,26.523,21.582,48.104,48.106,48.106 c0.002,0,0.002,0,0.005,0c12.846,0,24.925-5.003,34.009-14.086c1.308-1.308,2.52-2.684,3.657-4.11 c8.821,11.079,22.41,18.202,37.638,18.203c0.002,0,0.002,0,0.005,0c12.847,0,24.926-5.003,34.01-14.086 c1.308-1.308,2.52-2.684,3.657-4.11c8.821,11.079,22.41,18.202,37.638,18.204c0.002,0,0.002,0,0.005,0 c12.846,0,24.925-5.003,34.009-14.086c9.085-9.085,14.087-21.165,14.086-34.015C379.411,403.739,372.289,390.15,361.21,381.329z M293.779,241.144c0.001,0,0.002,0,0.003,0c15.004,0.001,27.21,12.208,27.211,27.21c0,7.267-2.829,14.099-7.966,19.237 c-5.137,5.137-11.967,7.966-19.232,7.966c-0.001,0-0.002,0-0.003,0c-15.002-0.001-27.209-12.209-27.21-27.211 c-0.001-7.266,2.829-14.098,7.966-19.236C279.685,243.973,286.514,241.144,293.779,241.144z M236.753,173.793 c5.137-5.137,11.967-7.966,19.233-7.966c0,0,0.001,0,0.002,0c15.002,0.001,27.209,12.208,27.21,27.21 c0.001,7.267-2.828,14.098-7.966,19.236c-5.137,5.137-11.966,7.966-19.231,7.966c-0.001,0-0.002,0-0.003,0 c-15.003-0.001-27.21-12.209-27.211-27.211C228.786,185.762,231.615,178.93,236.753,173.793z M199.238,249.103 c5.137-5.137,11.967-7.966,19.232-7.966c0.001,0,0.002,0,0.003,0c15.002,0.001,27.209,12.209,27.21,27.21 c0.001,7.267-2.829,14.098-7.966,19.236c-5.137,5.137-11.966,7.966-19.231,7.966c-0.001,0-0.002,0-0.003,0 c-15.003-0.001-27.21-12.208-27.211-27.21C191.272,261.071,194.1,254.24,199.238,249.103z M161.451,324.408 c5.137-5.137,11.966-7.966,19.231-7.966c0.001,0,0.002,0,0.003,0c14.952,0.001,27.126,12.129,27.206,27.063 c0,0.047-0.003,0.093-0.003,0.14c0,0.049,0.003,0.098,0.004,0.147c-0.036,7.214-2.859,13.991-7.963,19.096 c-5.104,5.104-11.88,7.927-19.093,7.962c-0.05,0-0.098-0.004-0.148-0.004c-0.002,0-0.002,0-0.005,0 c-0.046,0-0.091,0.003-0.137,0.003c-14.934-0.08-27.06-12.252-27.061-27.205C153.484,336.377,156.314,329.546,161.451,324.408z M199.93,438.192c-5.137,5.137-11.966,7.966-19.231,7.966c-0.001,0-0.002,0-0.003,0c-15.002-0.001-27.209-12.209-27.21-27.21 c-0.001-7.267,2.829-14.098,7.966-19.236c5.104-5.104,11.88-7.927,19.093-7.962c0.05,0,0.098,0.004,0.148,0.004 c0.002,0,0.002,0,0.005,0c0.046,0,0.091-0.003,0.137-0.003c14.934,0.083,27.06,12.255,27.061,27.207 C207.897,426.222,205.067,433.054,199.93,438.192z M221.981,384.943c-1.308,1.308-2.519,2.683-3.655,4.109 c-2.276-2.859-4.869-5.452-7.728-7.729c1.425-1.136,2.801-2.348,4.109-3.656c1.307-1.308,2.52-2.684,3.656-4.109 c2.277,2.859,4.87,5.451,7.729,7.728C224.667,382.421,223.289,383.634,221.981,384.943z M228.79,343.504 c0.036-7.214,2.859-13.991,7.963-19.096c5.137-5.137,11.967-7.966,19.232-7.966c0.001,0,0.002,0,0.003,0 c15.002,0.001,27.209,12.209,27.21,27.21c0.001,7.267-2.829,14.098-7.966,19.236c-5.137,5.137-11.966,7.966-19.231,7.966 c-0.001,0-0.002,0-0.003,0c-14.954-0.001-27.127-12.128-27.207-27.063c0-0.047,0.003-0.093,0.003-0.14 C228.794,343.602,228.791,343.553,228.79,343.504z M275.24,438.199c-5.137,5.137-11.967,7.966-19.232,7.966 c-0.001,0-0.002,0-0.003,0c-15.002-0.001-27.209-12.209-27.21-27.21c-0.001-7.267,2.828-14.098,7.966-19.236 c5.137-5.137,11.967-7.966,19.232-7.966c0.001,0,0.002,0,0.003,0c15.002,0.001,27.209,12.209,27.21,27.211 C283.207,426.23,280.377,433.061,275.24,438.199z M297.293,384.949c-1.308,1.308-2.521,2.684-3.657,4.11 c-2.279-2.862-4.874-5.458-7.735-7.735c1.425-1.136,2.801-2.349,4.11-3.657s2.521-2.684,3.657-4.11 c2.279,2.862,4.874,5.458,7.735,7.735C299.978,382.427,298.602,383.641,297.293,384.949z M312.064,324.416 c5.137-5.137,11.966-7.966,19.231-7.966c0.001,0,0.002,0,0.003,0c15.002,0.002,27.209,12.209,27.21,27.211 c0.001,7.267-2.829,14.098-7.966,19.235c-5.137,5.137-11.966,7.966-19.231,7.966c-0.001,0-0.002,0-0.003,0 c-15.002-0.001-27.209-12.209-27.21-27.211C304.097,336.385,306.926,329.554,312.064,324.416z M350.549,438.205 c-5.137,5.137-11.966,7.966-19.231,7.966c-0.001,0-0.002,0-0.003,0c-15.002-0.001-27.209-12.209-27.21-27.21 c-0.001-7.267,2.829-14.098,7.966-19.236c5.137-5.137,11.966-7.966,19.231-7.966c0.001,0,0.002,0,0.003,0 c15.002,0.001,27.209,12.209,27.21,27.21C358.516,426.237,355.686,433.067,350.549,438.205z"/> </g> </g> </g>
</svg>