<svg width="24" height="24" viewBox="0 0 24 24" fill="none" xmlns="http://www.w3.org/2000/svg">
<path d="M20.281 8.78054L12.781 16.2805C12.7114 16.3503 12.6287 16.4056 12.5376 16.4433C12.4466 16.4811 12.349 16.5005 12.2504 16.5005C12.1519 16.5005 12.0543 16.4811 11.9632 16.4433C11.8722 16.4056 11.7894 16.3503 11.7198 16.2805L4.21979 8.78054C4.07906 8.63981 4 8.44894 4 8.24991C4 8.05089 4.07906 7.86002 4.21979 7.71929C4.36052 7.57856 4.55139 7.4995 4.75042 7.4995C4.94944 7.4995 5.14031 7.57856 5.28104 7.71929L12.2504 14.6896L19.2198 7.71929C19.2895 7.64961 19.3722 7.59433 19.4632 7.55662C19.5543 7.51891 19.6519 7.4995 19.7504 7.4995C19.849 7.4995 19.9465 7.51891 20.0376 7.55662C20.1286 7.59433 20.2114 7.64961 20.281 7.71929C20.3507 7.78897 20.406 7.8717 20.4437 7.96274C20.4814 8.05379 20.5008 8.15137 20.5008 8.24991C20.5008 8.34846 20.4814 8.44604 20.4437 8.53709C20.406 8.62813 20.3507 8.71086 20.281 8.78054Z" fill="white"/>
</svg>
