<svg width="36" height="36" viewBox="0 0 36 36" fill="none" xmlns="http://www.w3.org/2000/svg">
<path d="M18.5625 3.375C14.8341 3.37909 11.2597 4.86199 8.62333 7.49833C5.98699 10.1347 4.50409 13.7091 4.5 17.4375V29.25C4.5 29.8467 4.73705 30.419 5.15901 30.841C5.58097 31.2629 6.15326 31.5 6.75 31.5H18.5625C22.2921 31.5 25.869 30.0184 28.5062 27.3812C31.1434 24.744 32.625 21.1671 32.625 17.4375C32.625 13.7079 31.1434 10.131 28.5062 7.49381C25.869 4.85658 22.2921 3.375 18.5625 3.375ZM18.5625 29.25H6.75V17.4375C6.75 15.1012 7.44279 12.8174 8.74077 10.8748C10.0387 8.93227 11.8836 7.41823 14.0421 6.52417C16.2005 5.63011 18.5756 5.39619 20.867 5.85197C23.1584 6.30776 25.2632 7.43279 26.9152 9.0848C28.5672 10.7368 29.6922 12.8416 30.148 15.133C30.6038 17.4244 30.3699 19.7995 29.4758 21.9579C28.5818 24.1164 27.0677 25.9613 25.1252 27.2592C23.1826 28.5572 20.8988 29.25 18.5625 29.25Z" fill="white"/>
</svg>
