<svg width="30" height="30" viewBox="0 0 30 30" fill="none" xmlns="http://www.w3.org/2000/svg">
<path d="M19.8715 8.50665C19.023 6.52028 17.5147 4.8878 15.6015 3.88522C13.6883 2.88264 11.4876 2.57145 9.3714 3.00428C7.25522 3.43711 5.35342 4.58739 3.98751 6.26066C2.62159 7.93393 1.87537 10.0275 1.875 12.1875V19.6875C1.875 20.1848 2.07254 20.6617 2.42417 21.0133C2.77581 21.365 3.25272 21.5625 3.75 21.5625H10.1566C10.8882 23.2332 12.0904 24.6547 13.6164 25.6536C15.1424 26.6525 16.9262 27.1855 18.75 27.1875H26.25C26.7473 27.1875 27.2242 26.99 27.5758 26.6383C27.9275 26.2867 28.125 25.8098 28.125 25.3125V17.8125C28.1246 15.5206 27.2846 13.3083 25.7638 11.5937C24.2431 9.87901 22.1469 8.78082 19.8715 8.50665ZM3.75 12.1875C3.75 10.7042 4.18987 9.25411 5.01398 8.02074C5.83809 6.78737 7.00943 5.82608 8.37987 5.25842C9.75032 4.69076 11.2583 4.54224 12.7132 4.83163C14.168 5.12101 15.5044 5.83532 16.5533 6.88421C17.6022 7.93311 18.3165 9.26948 18.6059 10.7243C18.8953 12.1792 18.7468 13.6872 18.1791 15.0576C17.6114 16.4281 16.6501 17.5994 15.4168 18.4235C14.1834 19.2476 12.7334 19.6875 11.25 19.6875H3.75V12.1875ZM26.25 25.3125H18.75C17.4238 25.311 16.1216 24.9586 14.9756 24.2912C13.8296 23.6237 12.8807 22.6649 12.225 21.5121C13.509 21.3789 14.7517 20.9816 15.8749 20.3454C16.9982 19.7091 17.9778 18.8475 18.7522 17.8147C19.5267 16.7818 20.0793 15.6001 20.3753 14.3435C20.6714 13.087 20.7045 11.7828 20.4727 10.5129C22.1171 10.901 23.5823 11.833 24.6309 13.1579C25.6795 14.4827 26.25 16.1229 26.25 17.8125V25.3125Z" fill="white"/>
</svg>
