<svg width="24" height="24" viewBox="0 0 24 24" fill="none" xmlns="http://www.w3.org/2000/svg">
<path d="M12.75 6.75V10.7859L16.1644 9.07875C16.3423 8.98974 16.5483 8.97504 16.737 9.0379C16.9257 9.10075 17.0818 9.23601 17.1708 9.41391C17.2598 9.59181 17.2745 9.79779 17.2116 9.98653C17.1488 10.1753 17.0135 10.3313 16.8356 10.4203L12.3356 12.6703C12.2213 12.7275 12.0943 12.7546 11.9666 12.7489C11.8389 12.7432 11.7147 12.7049 11.606 12.6378C11.4972 12.5706 11.4074 12.4768 11.3451 12.3651C11.2828 12.2535 11.2501 12.1278 11.25 12V6.75C11.25 6.55109 11.329 6.36033 11.4697 6.21967C11.6103 6.07902 11.8011 6 12 6C12.1989 6 12.3897 6.07902 12.5303 6.21967C12.671 6.36033 12.75 6.55109 12.75 6.75ZM12 20.25C10.3683 20.25 8.77326 19.7661 7.41655 18.8596C6.05984 17.9531 5.00242 16.6646 4.378 15.1571C3.75358 13.6497 3.5902 11.9909 3.90853 10.3905C4.22685 8.79017 5.01259 7.32016 6.16637 6.16637C7.32016 5.01259 8.79017 4.22685 10.3905 3.90853C11.9909 3.5902 13.6497 3.75358 15.1571 4.378C16.6646 5.00242 17.9531 6.05984 18.8596 7.41655C19.7661 8.77326 20.25 10.3683 20.25 12C20.25 12.1989 20.329 12.3897 20.4697 12.5303C20.6103 12.671 20.8011 12.75 21 12.75C21.1989 12.75 21.3897 12.671 21.5303 12.5303C21.671 12.3897 21.75 12.1989 21.75 12C21.75 10.0716 21.1782 8.18657 20.1068 6.58319C19.0355 4.97982 17.5127 3.73013 15.7312 2.99218C13.9496 2.25422 11.9892 2.06114 10.0979 2.43735C8.20656 2.81355 6.46928 3.74215 5.10571 5.10571C3.74215 6.46928 2.81355 8.20656 2.43735 10.0979C2.06114 11.9892 2.25422 13.9496 2.99218 15.7312C3.73013 17.5127 4.97982 19.0355 6.58319 20.1068C8.18657 21.1782 10.0716 21.75 12 21.75C12.1989 21.75 12.3897 21.671 12.5303 21.5303C12.671 21.3897 12.75 21.1989 12.75 21C12.75 20.8011 12.671 20.6103 12.5303 20.4697C12.3897 20.329 12.1989 20.25 12 20.25ZM21.7247 20.8069C21.7522 20.9027 21.7603 21.0031 21.7485 21.1021C21.7367 21.2011 21.7053 21.2968 21.6561 21.3836C21.607 21.4703 21.541 21.5464 21.462 21.6073C21.3831 21.6682 21.2928 21.7128 21.1964 21.7384C21.1001 21.764 20.9996 21.7702 20.9008 21.7565C20.802 21.7428 20.707 21.7096 20.6212 21.6587C20.5354 21.6078 20.4607 21.5404 20.4013 21.4603C20.3419 21.3802 20.2991 21.289 20.2753 21.1922C20.01 20.1956 19.0744 19.5 18 19.5C16.9256 19.5 15.99 20.1956 15.7247 21.1922C15.6823 21.3521 15.5883 21.4934 15.4572 21.5943C15.3261 21.6952 15.1654 21.7499 15 21.75C14.9348 21.7498 14.8699 21.7413 14.8069 21.7247C14.6147 21.6735 14.4507 21.548 14.351 21.3759C14.2513 21.2037 14.2241 20.9991 14.2753 20.8069C14.5186 19.9036 15.0907 19.1238 15.8794 18.6206C15.4595 18.2012 15.1734 17.6667 15.0574 17.0846C14.9414 16.5026 15.0006 15.8992 15.2276 15.3509C15.4545 14.8025 15.8391 14.3338 16.3325 14.004C16.8259 13.6742 17.4061 13.4981 17.9995 13.4981C18.593 13.4981 19.1732 13.6742 19.6666 14.004C20.16 14.3338 20.5445 14.8025 20.7715 15.3509C20.9985 15.8992 21.0577 16.5026 20.9417 17.0846C20.8256 17.6667 20.5396 18.2012 20.1197 18.6206C20.9087 19.1236 21.4812 19.9034 21.7247 20.8069ZM16.5 16.5C16.5 16.7967 16.588 17.0867 16.7528 17.3334C16.9176 17.58 17.1519 17.7723 17.426 17.8858C17.7001 17.9994 18.0017 18.0291 18.2926 17.9712C18.5836 17.9133 18.8509 17.7704 19.0607 17.5607C19.2704 17.3509 19.4133 17.0836 19.4712 16.7926C19.5291 16.5017 19.4994 16.2001 19.3858 15.926C19.2723 15.6519 19.08 15.4176 18.8334 15.2528C18.5867 15.088 18.2967 15 18 15C17.6022 15 17.2206 15.158 16.9393 15.4393C16.658 15.7206 16.5 16.1022 16.5 16.5Z" fill="white"/>
</svg>
