<?xml version="1.0" standalone="no"?>
<!DOCTYPE svg PUBLIC "-//W3C//DTD SVG 20010904//EN"
 "http://www.w3.org/TR/2001/REC-SVG-20010904/DTD/svg10.dtd">
<svg version="1.0" xmlns="http://www.w3.org/2000/svg"
 width="512.000000pt" height="512.000000pt" viewBox="0 0 512.000000 512.000000"
 preserveAspectRatio="xMidYMid meet">

<g transform="translate(0.000000,512.000000) scale(0.100000,-0.100000)"
fill="#ffffff" stroke="none">
<path d="M2348 5105 c-611 -84 -1119 -531 -1284 -1132 -72 -263 -70 -557 6
-827 17 -60 29 -109 28 -110 -2 -1 -37 -15 -78 -30 -549 -207 -929 -681 -1005
-1253 -113 -846 486 -1627 1333 -1738 408 -54 806 52 1139 303 l72 54 81 -61
c324 -244 729 -350 1133 -296 846 112 1445 893 1332 1738 -58 440 -303 834
-672 1083 -92 62 -243 139 -343 174 -36 13 -66 24 -68 25 -1 1 11 51 28 111
256 912 -351 1835 -1290 1960 -128 17 -283 16 -412 -1z m392 -300 c135 -21
230 -49 346 -104 143 -68 245 -140 355 -250 325 -325 444 -784 319 -1230 -37
-130 -31 -125 -152 -122 -347 9 -691 -102 -968 -310 l-80 -61 -75 56 c-272
205 -562 305 -909 312 -122 3 -172 7 -178 16 -18 29 -59 180 -73 273 -47 311
25 621 205 891 67 100 222 254 324 323 266 179 582 253 886 206z m-1010 -2020
c144 -22 233 -50 365 -114 265 -130 457 -325 586 -595 188 -395 150 -857 -101
-1232 -68 -101 -223 -256 -324 -324 -438 -293 -976 -292 -1416 3 -98 65 -253
221 -320 321 -292 436 -292 976 0 1412 68 101 223 256 324 324 267 179 582
252 886 205z m2020 0 c144 -22 233 -50 365 -114 143 -70 253 -150 356 -258
358 -374 449 -928 230 -1389 -68 -143 -140 -245 -250 -355 -411 -411 -1036
-486 -1536 -184 -33 20 -79 52 -102 71 l-42 35 58 87 c218 323 307 697 256
1075 -32 242 -116 461 -256 669 l-59 88 51 40 c245 193 606 285 929 235z"/>
<path d="M2488 4500 c-23 -12 -46 -36 -58 -60 -55 -108 20 -220 147 -220 80 0
183 -27 273 -71 169 -83 307 -260 345 -444 8 -38 15 -92 15 -118 0 -93 67
-167 150 -167 51 0 107 35 131 82 19 38 21 53 16 133 -32 471 -420 857 -887
881 -83 4 -100 2 -132 -16z"/>
<path d="M1478 2480 c-23 -12 -46 -36 -58 -60 -55 -108 20 -220 147 -220 80 0
183 -27 273 -71 119 -59 230 -170 289 -289 44 -90 71 -193 71 -273 0 -93 67
-167 150 -167 51 0 107 35 131 82 19 38 21 53 16 133 -32 471 -420 857 -887
881 -83 4 -100 2 -132 -16z"/>
<path d="M3498 2480 c-23 -12 -46 -36 -58 -60 -55 -108 20 -220 147 -220 80 0
183 -27 273 -71 119 -59 230 -170 289 -289 44 -90 71 -193 71 -273 0 -93 67
-167 150 -167 51 0 107 35 131 82 19 38 21 53 16 133 -32 471 -420 857 -887
881 -83 4 -100 2 -132 -16z"/>
</g>
</svg>
