<?xml version="1.0" standalone="no"?>
<!DOCTYPE svg PUBLIC "-//W3C//DTD SVG 20010904//EN"
 "http://www.w3.org/TR/2001/REC-SVG-20010904/DTD/svg10.dtd">
<svg version="1.0" xmlns="http://www.w3.org/2000/svg"
 width="512.000000pt" height="512.000000pt" viewBox="0 0 512.000000 512.000000"
 preserveAspectRatio="xMidYMid meet">

<g transform="translate(0.000000,512.000000) scale(0.100000,-0.100000)"
fill="#ffffff" stroke="none">
<path d="M2410 5114 c-245 -31 -464 -113 -672 -250 -101 -67 -310 -278 -379
-384 -77 -117 -135 -235 -174 -356 -57 -172 -70 -257 -69 -459 1 -187 11 -262
56 -413 19 -65 24 -73 42 -68 12 4 84 9 161 12 400 18 807 -107 1118 -342 31
-24 62 -44 67 -44 5 0 36 20 67 44 202 152 436 255 712 313 109 23 151 26 316
27 105 1 209 -2 231 -6 l41 -8 26 93 c44 156 51 214 51 397 0 198 -14 286 -70
458 -65 200 -175 380 -329 540 -121 126 -235 213 -375 286 -212 110 -389 155
-630 160 -85 3 -171 2 -190 0z m383 -523 c394 -102 687 -452 714 -856 5 -80 3
-95 -16 -133 -24 -47 -80 -82 -132 -82 -46 0 -108 39 -130 82 -11 21 -19 58
-19 85 0 80 -27 183 -71 273 -83 169 -260 307 -444 345 -38 8 -92 15 -119 15
-164 0 -226 192 -90 277 36 23 46 24 134 19 52 -3 130 -14 173 -25z"/>
<path d="M1300 2894 c-245 -31 -464 -113 -672 -250 -101 -67 -310 -278 -379
-384 -111 -169 -187 -352 -226 -547 -24 -123 -24 -403 0 -526 57 -282 184
-528 377 -731 217 -226 455 -359 767 -428 142 -31 424 -31 570 0 190 41 357
111 523 221 106 69 317 278 384 379 115 175 194 364 233 559 24 122 24 404 0
526 -39 196 -119 387 -233 558 -65 97 -228 266 -334 345 -159 118 -368 212
-568 254 -95 20 -359 34 -442 24z m383 -523 c394 -102 687 -452 714 -856 5
-80 3 -95 -16 -133 -24 -47 -80 -82 -132 -82 -46 0 -108 39 -130 82 -11 21
-19 58 -19 85 0 80 -27 183 -71 273 -59 119 -170 230 -289 289 -90 44 -193 71
-274 71 -164 0 -226 192 -90 277 36 23 46 24 134 19 52 -3 130 -14 173 -25z"/>
<path d="M3520 2894 c-171 -22 -355 -76 -491 -144 -78 -40 -249 -147 -249
-157 0 -2 26 -39 59 -81 179 -236 287 -489 342 -802 8 -44 14 -151 14 -260 0
-109 -6 -216 -14 -260 -55 -313 -163 -566 -342 -802 -33 -42 -59 -79 -59 -81
0 -2 32 -26 71 -52 165 -111 361 -193 555 -232 133 -26 413 -24 551 5 189 41
356 111 523 221 106 69 317 278 384 379 115 175 194 364 233 559 24 122 24
404 0 526 -39 196 -119 387 -233 558 -65 97 -228 266 -334 345 -159 118 -368
212 -568 254 -95 20 -359 34 -442 24z m383 -523 c394 -102 687 -452 714 -856
5 -80 3 -95 -16 -133 -24 -47 -80 -82 -132 -82 -46 0 -108 39 -130 82 -11 21
-19 58 -19 85 0 80 -27 183 -71 273 -59 119 -170 230 -289 289 -90 44 -193 71
-274 71 -164 0 -226 192 -90 277 36 23 46 24 134 19 52 -3 130 -14 173 -25z"/>
</g>
</svg>
