<svg width="55" height="56" viewBox="0 0 55 56" fill="none" xmlns="http://www.w3.org/2000/svg">
<path d="M36.78 21.8447L33.78 18.8447C33.7104 18.7749 33.6276 18.7196 33.5366 18.6819C33.4455 18.6441 33.348 18.6247 33.2494 18.6247C33.1508 18.6247 33.0532 18.6441 32.9622 18.6819C32.8711 18.7196 32.7884 18.7749 32.7188 18.8447L23.7188 27.8447C23.6491 27.9144 23.5939 27.9971 23.5563 28.0882C23.5186 28.1792 23.4993 28.2768 23.4994 28.3753V31.3753C23.4994 31.5742 23.5784 31.765 23.7191 31.9056C23.8597 32.0463 24.0505 32.1253 24.2494 32.1253H27.2494C27.3479 32.1254 27.4455 32.106 27.5365 32.0684C27.6276 32.0308 27.7103 31.9756 27.78 31.9059L36.78 22.9059C36.8497 22.8363 36.9051 22.7536 36.9428 22.6625C36.9806 22.5715 37 22.4739 37 22.3753C37 22.2767 36.9806 22.1791 36.9428 22.0881C36.9051 21.997 36.8497 21.9143 36.78 21.8447ZM26.9391 30.6253H24.9994V28.6856L30.9994 22.6856L32.9391 24.6253L26.9391 30.6253ZM33.9994 23.565L32.0597 21.6253L33.2494 20.4356L35.1891 22.3753L33.9994 23.565ZM36.2494 28.3753V35.8753C36.2494 36.2731 36.0914 36.6547 35.81 36.936C35.5287 37.2173 35.1472 37.3753 34.7494 37.3753H19.7494C19.3516 37.3753 18.97 37.2173 18.6887 36.936C18.4074 36.6547 18.2494 36.2731 18.2494 35.8753V20.8753C18.2494 20.4775 18.4074 20.0959 18.6887 19.8146C18.97 19.5333 19.3516 19.3753 19.7494 19.3753H27.2494C27.4483 19.3753 27.6391 19.4543 27.7797 19.595C27.9204 19.7356 27.9994 19.9264 27.9994 20.1253C27.9994 20.3242 27.9204 20.515 27.7797 20.6556C27.6391 20.7963 27.4483 20.8753 27.2494 20.8753H19.7494V35.8753H34.7494V28.3753C34.7494 28.1764 34.8284 27.9856 34.9691 27.845C35.1097 27.7043 35.3005 27.6253 35.4994 27.6253C35.6983 27.6253 35.8891 27.7043 36.0297 27.845C36.1704 27.9856 36.2494 28.1764 36.2494 28.3753Z" fill="white"/>
</svg>
