<svg width="36" height="36" viewBox="0 0 36 36" fill="none" xmlns="http://www.w3.org/2000/svg">
<path d="M33.421 14.9555L22.171 3.7055C22.0137 3.54807 21.8133 3.44081 21.5951 3.39728C21.3769 3.35376 21.1507 3.37592 20.945 3.46097C20.7394 3.54601 20.5636 3.69013 20.4399 3.87508C20.3162 4.06003 20.2501 4.27752 20.25 4.50003V10.1742C16.6022 10.4864 12.5733 12.2724 9.25879 15.0835C5.26785 18.4697 2.78301 22.8333 2.26129 27.3699C2.22052 27.7226 2.29203 28.0791 2.46565 28.3888C2.63927 28.6985 2.90615 28.9456 3.2283 29.0948C3.55046 29.2441 3.91148 29.2879 4.25999 29.2201C4.6085 29.1522 4.92674 28.9762 5.16941 28.7171C6.71629 27.0703 12.2203 21.863 20.25 21.4046V27C20.2501 27.2225 20.3162 27.44 20.4399 27.625C20.5636 27.8099 20.7394 27.954 20.945 28.0391C21.1507 28.1241 21.3769 28.1463 21.5951 28.1028C21.8133 28.0592 22.0137 27.952 22.171 27.7946L33.421 16.5446C33.6314 16.3337 33.7495 16.0479 33.7495 15.75C33.7495 15.4521 33.6314 15.1664 33.421 14.9555ZM22.5 24.2846V20.25C22.5 19.9517 22.3815 19.6655 22.1705 19.4545C21.9596 19.2436 21.6734 19.125 21.375 19.125C17.4263 19.125 13.5802 20.1558 9.94363 22.1907C8.09152 23.2316 6.36586 24.483 4.80097 25.92C5.6166 22.5675 7.67254 19.3796 10.7143 16.7991C13.9796 14.0302 17.9649 12.375 21.375 12.375C21.6734 12.375 21.9596 12.2565 22.1705 12.0455C22.3815 11.8345 22.5 11.5484 22.5 11.25V7.2169L31.0346 15.75L22.5 24.2846Z" fill="white"/>
</svg>
