<svg width="20" height="21" viewBox="0 0 20 21" fill="none" xmlns="http://www.w3.org/2000/svg">
<g clip-path="url(#clip0_141_1090)">
<path d="M20.0002 11.125C20.0002 11.3736 19.9014 11.6121 19.7256 11.7879C19.5498 11.9637 19.3113 12.0625 19.0627 12.0625H15.9377C15.689 12.0625 15.4506 11.9637 15.2748 11.7879C15.099 11.6121 15.0002 11.3736 15.0002 11.125C15.0002 10.8763 15.099 10.6379 15.2748 10.4621C15.4506 10.2863 15.689 10.1875 15.9377 10.1875H19.0627C19.3113 10.1875 19.5498 10.2863 19.7256 10.4621C19.9014 10.6379 20.0002 10.8763 20.0002 11.125ZM15.7181 15.5219C15.8781 15.7123 15.9559 15.9584 15.9343 16.2062C15.9128 16.4539 15.7937 16.683 15.6033 16.843C15.4129 17.0029 15.1667 17.0807 14.919 17.0591C14.6712 17.0376 14.4422 16.9185 14.2822 16.7281C13.2127 15.4547 11.3283 13.9375 8.43768 13.9375C6.18065 13.9375 4.10487 14.9281 2.59315 16.7281C2.43319 16.9185 2.20414 17.0376 1.95639 17.0591C1.70863 17.0807 1.46247 17.0029 1.27205 16.843C1.08164 16.683 0.962563 16.4539 0.941026 16.2062C0.919488 15.9584 0.997252 15.7123 1.15721 15.5219C2.17575 14.2917 3.48243 13.3323 4.96112 12.7289C4.04161 12.006 3.37033 11.0144 3.04069 9.89216C2.71105 8.76992 2.73945 7.57283 3.12193 6.46748C3.50441 5.36213 4.22196 4.4035 5.17471 3.725C6.12746 3.0465 7.26802 2.68188 8.43768 2.68188C9.60734 2.68188 10.7479 3.0465 11.7007 3.725C12.6534 4.4035 13.3709 5.36213 13.7534 6.46748C14.1359 7.57283 14.1643 8.76992 13.8347 9.89216C13.505 11.0144 12.8337 12.006 11.9142 12.7289C13.3931 13.3321 14.6998 14.2915 15.7181 15.5219ZM8.43768 12.0625C9.17936 12.0625 9.90438 11.8426 10.5211 11.4305C11.1378 11.0184 11.6184 10.4328 11.9022 9.74755C12.1861 9.06232 12.2603 8.30832 12.1156 7.5809C11.9709 6.85347 11.6138 6.18528 11.0893 5.66083C10.5649 5.13639 9.8967 4.77923 9.16927 4.63454C8.44184 4.48985 7.68784 4.56411 7.00262 4.84794C6.31739 5.13176 5.73172 5.61241 5.31967 6.2291C4.90761 6.84578 4.68768 7.5708 4.68768 8.31248C4.68871 9.30673 5.08413 10.26 5.78717 10.963C6.49021 11.666 7.44344 12.0615 8.43768 12.0625Z" fill="white"/>
</g>
<defs>
<clipPath id="clip0_141_1090">
<rect width="20" height="20" fill="white" transform="translate(0 0.5)"/>
</clipPath>
</defs>
</svg>
