<svg width="48" height="48" viewBox="0 0 48 48" fill="none" xmlns="http://www.w3.org/2000/svg">
<rect width="48" height="48" rx="24" fill="#055CFF"/>
<path d="M34.08 15.84H14.88C14.6254 15.84 14.3812 15.7389 14.2012 15.5588C14.0211 15.3788 13.92 15.1346 13.92 14.88C13.92 14.6254 14.0211 14.3812 14.2012 14.2012C14.3812 14.0211 14.6254 13.92 14.88 13.92H31.2C31.4546 13.92 31.6988 13.8189 31.8788 13.6388C32.0589 13.4588 32.16 13.2146 32.16 12.96C32.16 12.7054 32.0589 12.4612 31.8788 12.2812C31.6988 12.1011 31.4546 12 31.2 12H14.88C14.1162 12 13.3836 12.3034 12.8435 12.8435C12.3034 13.3836 12 14.1162 12 14.88V30.24C12 31.0038 12.3034 31.7364 12.8435 32.2765C13.3836 32.8166 14.1162 33.12 14.88 33.12H34.08C34.5892 33.12 35.0776 32.9177 35.4376 32.5576C35.7977 32.1976 36 31.7092 36 31.2V17.76C36 17.2508 35.7977 16.7624 35.4376 16.4024C35.0776 16.0423 34.5892 15.84 34.08 15.84ZM34.08 31.2H14.88C14.6254 31.2 14.3812 31.0989 14.2012 30.9188C14.0211 30.7388 13.92 30.4946 13.92 30.24V17.5956C14.2283 17.7049 14.553 17.7605 14.88 17.76H34.08V31.2ZM28.32 24C28.32 23.7152 28.4045 23.4368 28.5627 23.2C28.7209 22.9632 28.9458 22.7786 29.2089 22.6696C29.4721 22.5606 29.7616 22.5321 30.0409 22.5877C30.3203 22.6432 30.5768 22.7804 30.7782 22.9818C30.9796 23.1832 31.1168 23.4397 31.1723 23.7191C31.2279 23.9984 31.1994 24.2879 31.0904 24.5511C30.9814 24.8142 30.7968 25.0391 30.56 25.1973C30.3232 25.3555 30.0448 25.44 29.76 25.44C29.3781 25.44 29.0118 25.2883 28.7418 25.0182C28.4717 24.7482 28.32 24.3819 28.32 24Z" fill="white"/>
</svg>
