<svg width="24" height="24" viewBox="0 0 24 24" fill="none" xmlns="http://www.w3.org/2000/svg">
<path d="M17.25 20.25C17.25 20.4489 17.171 20.6397 17.0303 20.7803C16.8897 20.921 16.6989 21 16.5 21H7.49998C7.30107 21 7.1103 20.921 6.96965 20.7803C6.829 20.6397 6.74998 20.4489 6.74998 20.25C6.74998 20.0511 6.829 19.8603 6.96965 19.7197C7.1103 19.579 7.30107 19.5 7.49998 19.5H16.5C16.6989 19.5 16.8897 19.579 17.0303 19.7197C17.171 19.8603 17.25 20.0511 17.25 20.25ZM21.5306 10.7194L12.5306 1.71937C12.461 1.64964 12.3782 1.59432 12.2872 1.55658C12.1961 1.51883 12.0985 1.4994 12 1.4994C11.9014 1.4994 11.8038 1.51883 11.7128 1.55658C11.6217 1.59432 11.539 1.64964 11.4694 1.71937L2.46936 10.7194C2.36435 10.8243 2.29282 10.958 2.26383 11.1035C2.23485 11.2491 2.2497 11.4 2.30651 11.5371C2.36333 11.6742 2.45955 11.7914 2.58299 11.8738C2.70644 11.9562 2.85156 12.0001 2.99998 12H6.74998V14.25C6.74998 14.4489 6.829 14.6397 6.96965 14.7803C7.1103 14.921 7.30107 15 7.49998 15H16.5C16.6989 15 16.8897 14.921 17.0303 14.7803C17.171 14.6397 17.25 14.4489 17.25 14.25V12H21C21.1484 12.0001 21.2935 11.9562 21.417 11.8738C21.5404 11.7914 21.6366 11.6742 21.6934 11.5371C21.7503 11.4 21.7651 11.2491 21.7361 11.1035C21.7071 10.958 21.6356 10.8243 21.5306 10.7194ZM16.5 16.5H7.49998C7.30107 16.5 7.1103 16.579 6.96965 16.7197C6.829 16.8603 6.74998 17.0511 6.74998 17.25C6.74998 17.4489 6.829 17.6397 6.96965 17.7803C7.1103 17.921 7.30107 18 7.49998 18H16.5C16.6989 18 16.8897 17.921 17.0303 17.7803C17.171 17.6397 17.25 17.4489 17.25 17.25C17.25 17.0511 17.171 16.8603 17.0303 16.7197C16.8897 16.579 16.6989 16.5 16.5 16.5Z" fill="#12BE32"/>
</svg>
