<svg width="36" height="36" viewBox="0 0 36 36" fill="none" xmlns="http://www.w3.org/2000/svg">
<path d="M31.1709 18.796L21.0459 28.921C20.8348 29.132 20.5485 29.2506 20.25 29.2506C19.9515 29.2506 19.6652 29.132 19.4541 28.921C19.243 28.7099 19.1244 28.4236 19.1244 28.125C19.1244 27.8265 19.243 27.5402 19.4541 27.3291L27.6595 19.125H5.625C5.32663 19.125 5.04048 19.0065 4.82951 18.7955C4.61853 18.5845 4.5 18.2984 4.5 18C4.5 17.7016 4.61853 17.4155 4.82951 17.2045C5.04048 16.9935 5.32663 16.875 5.625 16.875H27.6595L19.4541 8.67095C19.243 8.45986 19.1244 8.17355 19.1244 7.87502C19.1244 7.57648 19.243 7.29017 19.4541 7.07908C19.6652 6.86798 19.9515 6.74939 20.25 6.74939C20.5485 6.74939 20.8348 6.86798 21.0459 7.07908L31.1709 17.2041C31.2755 17.3086 31.3585 17.4326 31.4151 17.5692C31.4717 17.7058 31.5009 17.8522 31.5009 18C31.5009 18.1479 31.4717 18.2943 31.4151 18.4308C31.3585 18.5674 31.2755 18.6915 31.1709 18.796Z" fill="white"/>
</svg>
