<svg width="25" height="25" viewBox="0 0 25 25" fill="none" xmlns="http://www.w3.org/2000/svg">
<path d="M11.1699 11.7038C11.1699 11.4813 11.2359 11.2638 11.3595 11.0788C11.4831 10.8938 11.6588 10.7496 11.8644 10.6645C12.07 10.5793 12.2962 10.5571 12.5144 10.6005C12.7326 10.6439 12.9331 10.751 13.0904 10.9084C13.2478 11.0657 13.3549 11.2661 13.3983 11.4844C13.4417 11.7026 13.4194 11.9288 13.3343 12.1344C13.2491 12.3399 13.1049 12.5156 12.9199 12.6392C12.7349 12.7629 12.5174 12.8288 12.2949 12.8288C11.9966 12.8288 11.7104 12.7103 11.4994 12.4993C11.2884 12.2884 11.1699 12.0022 11.1699 11.7038ZM8.16992 12.8288C8.39243 12.8288 8.60993 12.7629 8.79494 12.6392C8.97994 12.5156 9.12414 12.3399 9.20929 12.1344C9.29444 11.9288 9.31671 11.7026 9.27331 11.4844C9.2299 11.2661 9.12275 11.0657 8.96542 10.9084C8.80808 10.751 8.60763 10.6439 8.3894 10.6005C8.17117 10.5571 7.94497 10.5793 7.7394 10.6645C7.53384 10.7496 7.35813 10.8938 7.23452 11.0788C7.1109 11.2638 7.04492 11.4813 7.04492 11.7038C7.04492 12.0022 7.16345 12.2884 7.37443 12.4993C7.58541 12.7103 7.87155 12.8288 8.16992 12.8288ZM16.4199 12.8288C16.6424 12.8288 16.8599 12.7629 17.0449 12.6392C17.2299 12.5156 17.3741 12.3399 17.4593 12.1344C17.5444 11.9288 17.5667 11.7026 17.5233 11.4844C17.4799 11.2661 17.3728 11.0657 17.2154 10.9084C17.0581 10.751 16.8576 10.6439 16.6394 10.6005C16.4212 10.5571 16.195 10.5793 15.9894 10.6645C15.7838 10.7496 15.6081 10.8938 15.4845 11.0788C15.3609 11.2638 15.2949 11.4813 15.2949 11.7038C15.2949 12.0022 15.4134 12.2884 15.6244 12.4993C15.8354 12.7103 16.1216 12.8288 16.4199 12.8288ZM22.0449 5.70385V17.7038C22.0449 18.1017 21.8869 18.4832 21.6056 18.7645C21.3243 19.0458 20.9427 19.2038 20.5449 19.2038H14.8796L13.5971 21.4482C13.4659 21.6777 13.2763 21.8685 13.0477 22.0012C12.819 22.1338 12.5593 22.2037 12.2949 22.2037C12.0305 22.2037 11.7709 22.1338 11.5422 22.0012C11.3135 21.8685 11.124 21.6777 10.9927 21.4482L9.71023 19.2038H4.04492C3.6471 19.2038 3.26557 19.0458 2.98426 18.7645C2.70296 18.4832 2.54492 18.1017 2.54492 17.7038V5.70385C2.54492 5.30602 2.70296 4.92449 2.98426 4.64319C3.26557 4.36188 3.6471 4.20385 4.04492 4.20385H20.5449C20.9427 4.20385 21.3243 4.36188 21.6056 4.64319C21.8869 4.92449 22.0449 5.30602 22.0449 5.70385ZM20.5449 5.70385H4.04492V17.7038H10.1452C10.278 17.7027 10.4088 17.7367 10.5241 17.8026C10.6394 17.8685 10.7351 17.9638 10.8015 18.0788L12.3015 20.7038L13.8015 18.0788C13.8679 17.9638 13.9636 17.8685 14.0789 17.8026C14.1942 17.7367 14.3249 17.7027 14.4577 17.7038H20.5449V5.70385Z" fill="white"/>
</svg>
