<svg width="36" height="36" viewBox="0 0 36 36" fill="none" xmlns="http://www.w3.org/2000/svg">
<path d="M19.6875 18C19.6875 18.3338 19.5885 18.66 19.4031 18.9375C19.2177 19.215 18.9541 19.4313 18.6458 19.559C18.3374 19.6868 17.9981 19.7202 17.6708 19.6551C17.3434 19.59 17.0428 19.4292 16.8068 19.1932C16.5708 18.9572 16.41 18.6566 16.3449 18.3292C16.2798 18.0019 16.3132 17.6626 16.441 17.3542C16.5687 17.0459 16.785 16.7823 17.0625 16.5969C17.34 16.4115 17.6662 16.3125 18 16.3125C18.4476 16.3125 18.8768 16.4903 19.1932 16.8068C19.5097 17.1232 19.6875 17.5524 19.6875 18ZM27.5625 16.3125C27.2287 16.3125 26.9025 16.4115 26.625 16.5969C26.3475 16.7823 26.1312 17.0459 26.0035 17.3542C25.8757 17.6626 25.8423 18.0019 25.9074 18.3292C25.9725 18.6566 26.1333 18.9572 26.3693 19.1932C26.6053 19.4292 26.9059 19.59 27.2333 19.6551C27.5606 19.7202 27.8999 19.6868 28.2083 19.559C28.5166 19.4313 28.7802 19.215 28.9656 18.9375C29.151 18.66 29.25 18.3338 29.25 18C29.25 17.5524 29.0722 17.1232 28.7557 16.8068C28.4393 16.4903 28.0101 16.3125 27.5625 16.3125ZM8.4375 16.3125C8.10374 16.3125 7.77748 16.4115 7.49998 16.5969C7.22247 16.7823 7.00618 17.0459 6.87845 17.3542C6.75073 17.6626 6.71731 18.0019 6.78243 18.3292C6.84754 18.6566 7.00826 18.9572 7.24426 19.1932C7.48026 19.4292 7.78094 19.59 8.10829 19.6551C8.43563 19.7202 8.77493 19.6868 9.08328 19.559C9.39163 19.4313 9.65518 19.215 9.84061 18.9375C10.026 18.66 10.125 18.3338 10.125 18C10.125 17.5524 9.94721 17.1232 9.63074 16.8068C9.31428 16.4903 8.88505 16.3125 8.4375 16.3125Z" fill="white"/>
</svg>
