<svg width="36" height="36" viewBox="0 0 36 36" fill="none" xmlns="http://www.w3.org/2000/svg">
<path d="M25.0312 5.625C22.1273 5.625 19.5848 6.87375 18 8.98453C16.4152 6.87375 13.8727 5.625 10.9688 5.625C8.65719 5.62761 6.44106 6.54702 4.80654 8.18154C3.17202 9.81606 2.25261 12.0322 2.25 14.3438C2.25 24.1875 16.8455 32.1553 17.467 32.4844C17.6309 32.5725 17.814 32.6186 18 32.6186C18.186 32.6186 18.3691 32.5725 18.533 32.4844C19.1545 32.1553 33.75 24.1875 33.75 14.3438C33.7474 12.0322 32.828 9.81606 31.1935 8.18154C29.5589 6.54702 27.3428 5.62761 25.0312 5.625ZM18 30.2063C15.4322 28.71 4.5 21.8939 4.5 14.3438C4.50223 12.6288 5.18448 10.9848 6.39712 9.77212C7.60976 8.55948 9.25382 7.87723 10.9688 7.875C13.7039 7.875 16.0003 9.33188 16.9594 11.6719C17.0441 11.8782 17.1883 12.0547 17.3736 12.1789C17.5589 12.3031 17.7769 12.3694 18 12.3694C18.2231 12.3694 18.4411 12.3031 18.6264 12.1789C18.8117 12.0547 18.9559 11.8782 19.0406 11.6719C19.9997 9.32766 22.2961 7.875 25.0312 7.875C26.7462 7.87723 28.3902 8.55948 29.6029 9.77212C30.8155 10.9848 31.4978 12.6288 31.5 14.3438C31.5 21.8827 20.565 28.7086 18 30.2063Z" fill="white"/>
</svg>
