<svg width="24" height="24" viewBox="0 0 24 24" fill="none" xmlns="http://www.w3.org/2000/svg">
<path d="M21.3013 20.2401L16.6073 15.547C17.9678 13.9136 18.6462 11.8185 18.5014 9.69766C18.3566 7.5768 17.3998 5.5934 15.8299 4.16007C14.26 2.72674 12.1979 1.95383 10.0726 2.00213C7.94738 2.05043 5.92256 2.91622 4.41939 4.41939C2.91622 5.92256 2.05043 7.94738 2.00213 10.0726C1.95383 12.1979 2.72674 14.26 4.16007 15.8299C5.5934 17.3998 7.5768 18.3566 9.69766 18.5014C11.8185 18.6462 13.9136 17.9678 15.547 16.6073L20.2401 21.3013C20.3098 21.371 20.3925 21.4263 20.4836 21.464C20.5746 21.5017 20.6722 21.5211 20.7707 21.5211C20.8693 21.5211 20.9669 21.5017 21.0579 21.464C21.1489 21.4263 21.2317 21.371 21.3013 21.3013C21.371 21.2317 21.4263 21.1489 21.464 21.0579C21.5017 20.9669 21.5211 20.8693 21.5211 20.7707C21.5211 20.6722 21.5017 20.5746 21.464 20.4836C21.4263 20.3925 21.371 20.3098 21.3013 20.2401ZM3.52072 10.2707C3.52072 8.9357 3.9166 7.63065 4.6583 6.52062C5.4 5.41059 6.45421 4.54543 7.68761 4.03454C8.92101 3.52364 10.2782 3.38997 11.5876 3.65042C12.897 3.91087 14.0997 4.55375 15.0437 5.49775C15.9877 6.44176 16.6306 7.64449 16.891 8.95386C17.1515 10.2632 17.0178 11.6204 16.5069 12.8538C15.996 14.0872 15.1309 15.1414 14.0208 15.8831C12.9108 16.6248 11.6057 17.0207 10.2707 17.0207C8.48112 17.0187 6.76538 16.3069 5.49994 15.0415C4.2345 13.7761 3.52271 12.0603 3.52072 10.2707Z" fill="white"/>
</svg>
