<svg width="24" height="24" viewBox="0 0 24 24" fill="none" xmlns="http://www.w3.org/2000/svg">
<path d="M19.6558 11.4694C19.7255 11.539 19.7808 11.6217 19.8186 11.7128C19.8563 11.8038 19.8757 11.9014 19.8757 12C19.8757 12.0985 19.8563 12.1961 19.8186 12.2872C19.7808 12.3782 19.7255 12.461 19.6558 12.5306L11.9636 20.2181C10.9788 21.2027 9.6433 21.7558 8.25076 21.7557C6.85821 21.7557 5.52274 21.2024 4.53812 20.2176C3.5535 19.2329 3.0004 17.8974 3.00049 16.5048C3.00058 15.1123 3.55385 13.7768 4.53859 12.7922L13.8442 3.34967C14.5472 2.6459 15.5011 2.25022 16.4958 2.2497C17.4906 2.24917 18.4448 2.64383 19.1486 3.34686C19.8524 4.04989 20.248 5.0037 20.2486 5.99847C20.2491 6.99323 19.8544 7.94746 19.1514 8.65124L9.8439 18.0937C9.42121 18.5164 8.84792 18.7539 8.25015 18.7539C7.65238 18.7539 7.07909 18.5164 6.6564 18.0937C6.23371 17.671 5.99625 17.0978 5.99625 16.5C5.99625 15.9022 6.23371 15.3289 6.6564 14.9062L14.4658 6.97311C14.5342 6.90013 14.6165 6.84158 14.7079 6.80089C14.7993 6.7602 14.8979 6.73821 14.9979 6.73619C15.0979 6.73418 15.1973 6.75219 15.2902 6.78917C15.3832 6.82615 15.4678 6.88134 15.539 6.95151C15.6103 7.02167 15.6669 7.10539 15.7053 7.19773C15.7438 7.29007 15.7634 7.38917 15.7629 7.4892C15.7625 7.58923 15.7421 7.68816 15.7029 7.78017C15.6636 7.87219 15.6064 7.95542 15.5345 8.02499L7.72421 15.9665C7.65428 16.0359 7.5987 16.1184 7.56065 16.2092C7.52259 16.3001 7.5028 16.3976 7.50241 16.4961C7.50202 16.5946 7.52103 16.6922 7.55836 16.7833C7.5957 16.8745 7.65062 16.9574 7.71999 17.0273C7.78937 17.0973 7.87184 17.1528 7.96269 17.1909C8.05355 17.229 8.15101 17.2487 8.24951 17.2491C8.34801 17.2495 8.44563 17.2305 8.53678 17.1932C8.62794 17.1558 8.71085 17.1009 8.78078 17.0315L18.0873 7.59374C18.51 7.17192 18.7478 6.59946 18.7485 6.00231C18.7491 5.40515 18.5124 4.83221 18.0906 4.40952C17.6688 3.98683 17.0963 3.74902 16.4992 3.7484C15.902 3.74779 15.3291 3.98442 14.9064 4.40624L5.60265 13.845C5.25411 14.193 4.97753 14.6062 4.78869 15.0611C4.59985 15.5159 4.50246 16.0036 4.50207 16.4961C4.50167 16.9886 4.59829 17.4763 4.78641 17.9315C4.97452 18.3867 5.25045 18.8004 5.59843 19.1489C5.94641 19.4974 6.35964 19.774 6.81451 19.9629C7.26938 20.1517 7.757 20.2491 8.24951 20.2495C8.74202 20.2499 9.22979 20.1532 9.68496 19.9651C10.1401 19.777 10.5538 19.5011 10.9023 19.1531L18.5955 11.4656C18.7366 11.3256 18.9276 11.2473 19.1264 11.248C19.3252 11.2487 19.5156 11.3283 19.6558 11.4694Z" fill="white"/>
</svg>
