<svg width="20" height="21" viewBox="0 0 20 21" fill="none" xmlns="http://www.w3.org/2000/svg">
<path d="M10 2.0625C8.33122 2.0625 6.69992 2.55735 5.31238 3.48448C3.92484 4.4116 2.84338 5.72936 2.20477 7.27111C1.56616 8.81286 1.39907 10.5094 1.72463 12.1461C2.05019 13.7828 2.85379 15.2862 4.03379 16.4662C5.2138 17.6462 6.71721 18.4498 8.35393 18.7754C9.99064 19.1009 11.6871 18.9338 13.2289 18.2952C14.7706 17.6566 16.0884 16.5752 17.0155 15.1876C17.9427 13.8001 18.4375 12.1688 18.4375 10.5C18.435 8.263 17.5453 6.11833 15.9635 4.53653C14.3817 2.95473 12.237 2.06498 10 2.0625ZM16.5625 10.5C16.5639 11.9166 16.1046 13.2953 15.2539 14.4281L6.07188 5.24609C7.04716 4.51735 8.20594 4.07427 9.41863 3.96641C10.6313 3.85856 11.8501 4.09017 12.9387 4.63536C14.0273 5.18054 14.9427 6.0178 15.5827 7.05351C16.2227 8.08921 16.5619 9.28252 16.5625 10.5ZM3.4375 10.5C3.43615 9.08336 3.89543 7.70468 4.7461 6.57188L13.9281 15.7539C12.9528 16.4827 11.7941 16.9257 10.5814 17.0336C9.36869 17.1414 8.14991 16.9098 7.06132 16.3646C5.97273 15.8195 5.05727 14.9822 4.41729 13.9465C3.77732 12.9108 3.43808 11.7175 3.4375 10.5Z" fill="white"/>
</svg>
