<svg width="48" height="48" viewBox="0 0 48 48" fill="none" xmlns="http://www.w3.org/2000/svg">
<path d="M21.0769 19.2244C21.0146 19.0375 20.9897 18.8402 21.0036 18.6437C21.0176 18.4471 21.0701 18.2553 21.1582 18.0791C21.2463 17.9029 21.3683 17.7458 21.5171 17.6167C21.6659 17.4876 21.8387 17.3892 22.0256 17.3269L24.2756 16.5769C24.5011 16.5017 24.7412 16.4812 24.9762 16.517C25.2112 16.5529 25.4343 16.6441 25.6271 16.783C25.8199 16.922 25.9769 17.1049 26.0852 17.3164C26.1935 17.528 26.25 17.7623 26.25 18V25.5C26.25 25.8978 26.092 26.2794 25.8107 26.5607C25.5294 26.842 25.1478 27 24.75 27C24.3522 27 23.9706 26.842 23.6893 26.5607C23.408 26.2794 23.25 25.8978 23.25 25.5V20.0812L22.9744 20.1731C22.7875 20.2354 22.5902 20.2603 22.3937 20.2464C22.1971 20.2324 22.0053 20.1799 21.8291 20.0918C21.6529 20.0037 21.4958 19.8817 21.3667 19.7329C21.2376 19.5841 21.1392 19.4113 21.0769 19.2244ZM46.5 39C46.5 39.3978 46.342 39.7794 46.0607 40.0607C45.7794 40.342 45.3978 40.5 45 40.5H3C2.60218 40.5 2.22064 40.342 1.93934 40.0607C1.65804 39.7794 1.5 39.3978 1.5 39C1.5 38.6022 1.65804 38.2206 1.93934 37.9393C2.22064 37.658 2.60218 37.5 3 37.5H4.5V19.5C4.5 18.7044 4.81607 17.9413 5.37868 17.3787C5.94129 16.8161 6.70435 16.5 7.5 16.5H15V10.5C15 9.70435 15.3161 8.94129 15.8787 8.37868C16.4413 7.81607 17.2044 7.5 18 7.5H30C30.7956 7.5 31.5587 7.81607 32.1213 8.37868C32.6839 8.94129 33 9.70435 33 10.5V24H40.5C41.2957 24 42.0587 24.3161 42.6213 24.8787C43.1839 25.4413 43.5 26.2044 43.5 27V37.5H45C45.3978 37.5 45.7794 37.658 46.0607 37.9393C46.342 38.2206 46.5 38.6022 46.5 39ZM33 27V37.5H40.5V27H33ZM18 37.5H30V10.5H18V37.5ZM7.5 37.5H15V19.5H7.5V37.5Z" fill="white"/>
</svg>
