<svg width="52" height="52" viewBox="0 0 52 52" fill="none" xmlns="http://www.w3.org/2000/svg">
<path d="M34.1208 30.8402C32.3398 33.9192 29.3802 35.6864 26 35.6864C22.6198 35.6864 19.6602 33.921 17.8775 30.8402C17.7866 30.6827 17.7276 30.5088 17.7039 30.3285C17.6801 30.1482 17.6922 29.965 17.7393 29.7893C17.7864 29.6136 17.8676 29.449 17.9783 29.3047C18.089 29.1604 18.2271 29.0394 18.3846 28.9485C18.5421 28.8576 18.716 28.7986 18.8963 28.7748C19.0766 28.7511 19.2598 28.7631 19.4355 28.8102C19.6112 28.8573 19.7758 28.9386 19.9201 29.0493C20.0644 29.16 20.1854 29.2981 20.2763 29.4556C21.5675 31.69 23.5994 32.9171 26 32.9171C28.4006 32.9171 30.4325 31.6883 31.7254 29.4556C31.8119 29.2901 31.9311 29.1439 32.0756 29.0256C32.2202 28.9074 32.3871 28.8196 32.5665 28.7676C32.7458 28.7156 32.9338 28.7004 33.1192 28.7229C33.3046 28.7454 33.4835 28.8052 33.6452 28.8986C33.8069 28.9921 33.948 29.1173 34.06 29.2667C34.172 29.4161 34.2527 29.5866 34.2971 29.768C34.3416 29.9494 34.3488 30.1378 34.3185 30.3221C34.2882 30.5064 34.2209 30.6826 34.1208 30.8402ZM44 25.994C44.0009 27.7865 43.7349 29.5691 43.2108 31.2833C43.144 31.4997 43.0251 31.6964 42.8646 31.8562L31.8621 42.8587C31.7033 43.0195 31.507 43.1384 31.291 43.2048C27.6695 44.3185 23.789 44.2611 20.2021 43.0407C16.6152 41.8203 13.5049 39.4992 11.3141 36.4079C9.12336 33.3167 7.96389 29.613 8.00086 25.8244C8.03783 22.0357 9.26935 18.3554 11.52 15.3075C13.7707 12.2596 16.9257 9.9996 20.5357 8.84943C24.1458 7.69926 28.0267 7.71756 31.6257 8.90171C35.2247 10.0859 38.3583 12.3755 40.5801 15.4444C42.802 18.5134 43.9987 22.2052 44 25.994ZM41.2308 25.994C41.2268 22.8077 40.2224 19.7031 38.3592 17.1182C36.4961 14.5334 33.8683 12.5988 30.8467 11.5876C27.8251 10.5764 24.5622 10.5395 21.5185 11.4822C18.4748 12.4249 15.804 14.2996 13.8829 16.8417C11.9619 19.3838 10.8876 22.465 10.8116 25.6504C10.7357 28.8358 11.662 31.9647 13.4597 34.5955C15.2575 37.2262 17.8359 39.226 20.8312 40.3127C23.8265 41.3994 27.0875 41.518 30.1538 40.6519L40.6579 30.1479C41.0393 28.7963 41.2321 27.3984 41.2308 25.994ZM19.7692 24.6094C20.18 24.6094 20.5816 24.4876 20.9231 24.2594C21.2647 24.0312 21.5309 23.7068 21.6881 23.3273C21.8453 22.9478 21.8864 22.5302 21.8062 22.1273C21.7261 21.7244 21.5283 21.3544 21.2378 21.0639C20.9474 20.7734 20.5773 20.5756 20.1744 20.4955C19.7715 20.4154 19.3539 20.4565 18.9744 20.6137C18.5949 20.7709 18.2705 21.0371 18.0423 21.3786C17.8141 21.7202 17.6923 22.1217 17.6923 22.5325C17.6923 23.0833 17.9111 23.6116 18.3006 24.0011C18.6901 24.3906 19.2184 24.6094 19.7692 24.6094ZM32.2308 20.4556C31.82 20.4556 31.4184 20.5774 31.0769 20.8056C30.7353 21.0338 30.4691 21.3582 30.3119 21.7377C30.1547 22.1172 30.1136 22.5348 30.1938 22.9377C30.2739 23.3406 30.4717 23.7107 30.7622 24.0011C31.0526 24.2916 31.4227 24.4894 31.8256 24.5695C32.2285 24.6497 32.6461 24.6085 33.0256 24.4513C33.4051 24.2941 33.7295 24.0279 33.9577 23.6864C34.1859 23.3448 34.3077 22.9433 34.3077 22.5325C34.3077 21.9817 34.0889 21.4534 33.6994 21.0639C33.3099 20.6744 32.7816 20.4556 32.2308 20.4556Z" fill="white"/>
</svg>
