<svg width="30" height="30" viewBox="0 0 30 30" fill="none" xmlns="http://www.w3.org/2000/svg">
<path d="M27.6362 22.3802C24.3174 27.41 19.6912 29.9497 13.7575 29.9993C7.82391 30.0488 3.78853 27.5339 1.65141 22.4545C-0.485708 17.3751 -0.548565 12.1718 1.46284 6.84467C3.47424 1.5175 7.33363 -0.700089 13.041 0.191903C18.7483 1.08389 23.4374 3.74748 27.1082 8.18266C30.7791 12.6178 30.9551 17.3503 27.6362 22.3802Z" fill="#12BE32"/>
<rect x="1" y="1" width="28" height="28" rx="14" fill="#12BE32"/>
<path d="M20.25 15C20.2503 15.1273 20.2177 15.2526 20.1552 15.3635C20.0928 15.4745 20.0027 15.5674 19.8937 15.6333L13.14 19.7648C13.0261 19.8346 12.8957 19.8726 12.7622 19.8751C12.6287 19.8776 12.497 19.8444 12.3806 19.7789C12.2654 19.7145 12.1693 19.6205 12.1025 19.5066C12.0356 19.3928 12.0002 19.2632 12 19.1311V10.8689C12.0002 10.7369 12.0356 10.6072 12.1025 10.4934C12.1693 10.3795 12.2654 10.2855 12.3806 10.2211C12.497 10.1556 12.6287 10.1224 12.7622 10.1249C12.8957 10.1274 13.0261 10.1654 13.14 10.2352L19.8937 14.3667C20.0027 14.4326 20.0928 14.5255 20.1552 14.6365C20.2177 14.7474 20.2503 14.8727 20.25 15Z" fill="white"/>
</svg>
