<svg width="30" height="30" viewBox="0 0 30 30" fill="none" xmlns="http://www.w3.org/2000/svg">
<path d="M13.7402 18.5062C14.9967 17.6697 15.9507 16.4511 16.461 15.0305C16.9713 13.6099 17.0109 12.0628 16.574 10.618C16.137 9.17316 15.2467 7.90729 14.0346 7.0076C12.8226 6.1079 11.3532 5.62213 9.84375 5.62213C8.33428 5.62213 6.86489 6.1079 5.65285 7.0076C4.44082 7.90729 3.5505 9.17316 3.11354 10.618C2.67659 12.0628 2.7162 13.6099 3.22652 15.0305C3.73684 16.4511 4.69078 17.6697 5.94726 18.5062C3.6744 19.3439 1.73332 20.8941 0.413669 22.9254C0.344312 23.0285 0.296137 23.1443 0.271944 23.2662C0.24775 23.388 0.248021 23.5135 0.272741 23.6352C0.29746 23.757 0.346135 23.8726 0.415936 23.9754C0.485737 24.0782 0.575272 24.1661 0.679336 24.234C0.7834 24.3018 0.899918 24.3483 1.02212 24.3708C1.14431 24.3932 1.26976 24.3912 1.39115 24.3647C1.51254 24.3383 1.62746 24.2879 1.72924 24.2167C1.83101 24.1454 1.9176 24.0546 1.98398 23.9496C2.83522 22.6404 4.00002 21.5645 5.37262 20.8197C6.74521 20.0749 8.28211 19.6848 9.84375 19.6848C11.4054 19.6848 12.9423 20.0749 14.3149 20.8197C15.6875 21.5645 16.8523 22.6404 17.7035 23.9496C17.841 24.154 18.0534 24.296 18.2948 24.345C18.5362 24.394 18.7872 24.346 18.9935 24.2115C19.1998 24.0769 19.3449 23.8666 19.3973 23.6259C19.4498 23.3852 19.4054 23.1336 19.2738 22.9254C17.9542 20.8941 16.0131 19.3439 13.7402 18.5062ZM4.6875 12.6562C4.6875 11.6364 4.98991 10.6395 5.55648 9.79157C6.12306 8.94363 6.92835 8.28275 7.87053 7.89248C8.81272 7.50222 9.84947 7.40011 10.8497 7.59906C11.8499 7.79802 12.7687 8.2891 13.4898 9.01021C14.2109 9.73133 14.702 10.6501 14.9009 11.6503C15.0999 12.6505 14.9978 13.6873 14.6075 14.6294C14.2172 15.5716 13.5563 16.3769 12.7084 16.9435C11.8605 17.5101 10.8636 17.8125 9.84375 17.8125C8.4767 17.8109 7.16609 17.2672 6.19944 16.3005C5.23279 15.3339 4.68905 14.0233 4.6875 12.6562ZM29.3133 24.2226C29.105 24.3584 28.8514 24.406 28.6081 24.3547C28.3648 24.3035 28.1518 24.1578 28.016 23.9496C27.1658 22.6396 26.0011 21.5633 24.6283 20.8188C23.2554 20.0743 21.718 19.6854 20.1562 19.6875C19.9076 19.6875 19.6691 19.5887 19.4933 19.4129C19.3175 19.2371 19.2187 18.9986 19.2187 18.75C19.2187 18.5013 19.3175 18.2629 19.4933 18.0871C19.6691 17.9113 19.9076 17.8125 20.1562 17.8125C20.9156 17.8118 21.6654 17.6433 22.3521 17.3193C23.0388 16.9952 23.6454 16.5234 24.1287 15.9377C24.6119 15.352 24.9599 14.6667 25.1476 13.931C25.3353 13.1952 25.3582 12.4271 25.2146 11.6814C25.0711 10.9358 24.7646 10.231 24.3171 9.61756C23.8696 9.00409 23.2922 8.49702 22.626 8.1326C21.9598 7.76818 21.2214 7.55539 20.4634 7.50944C19.7055 7.46348 18.9467 7.58551 18.2414 7.86678C18.1264 7.91649 18.0026 7.94265 17.8773 7.94371C17.752 7.94477 17.6278 7.92071 17.512 7.87295C17.3962 7.82518 17.2911 7.75469 17.203 7.66563C17.1149 7.57657 17.0455 7.47075 16.999 7.35443C16.9524 7.2381 16.9297 7.11363 16.9321 6.98837C16.9345 6.8631 16.9619 6.73959 17.0129 6.62512C17.0638 6.51066 17.1372 6.40756 17.2286 6.32193C17.3201 6.23629 17.4277 6.16986 17.5453 6.12655C19.1595 5.48278 20.955 5.45961 22.5852 6.06152C24.2155 6.66342 25.5651 7.84775 26.3737 9.38602C27.1823 10.9243 27.3926 12.7075 26.964 14.3917C26.5354 16.0758 25.4983 17.5416 24.0527 18.5062C26.3256 19.3439 28.2667 20.8941 29.5863 22.9254C29.7221 23.1336 29.7696 23.3873 29.7184 23.6306C29.6672 23.8738 29.5215 24.0868 29.3133 24.2226Z" fill="white"/>
</svg>
