<svg width="30" height="30" viewBox="0 0 30 30" fill="none" xmlns="http://www.w3.org/2000/svg">
<path d="M3.1875 14.8125C3.28599 14.8864 3.39807 14.9401 3.51733 14.9707C3.63659 15.0012 3.76071 15.008 3.88258 14.9906C4.00446 14.9732 4.12171 14.9319 4.22765 14.8692C4.33359 14.8065 4.42613 14.7235 4.5 14.625C5.06762 13.8682 5.80364 13.2539 6.64979 12.8308C7.49594 12.4077 8.42897 12.1875 9.375 12.1875C10.321 12.1875 11.2541 12.4077 12.1002 12.8308C12.9464 13.2539 13.6824 13.8682 14.25 14.625C14.3994 14.8237 14.6215 14.955 14.8677 14.9899C15.1138 15.0249 15.3637 14.9606 15.5625 14.8113C15.6334 14.7586 15.6961 14.6958 15.7488 14.625C16.3164 13.8682 17.0525 13.2539 17.8986 12.8308C18.7448 12.4077 19.6778 12.1875 20.6238 12.1875C21.5699 12.1875 22.5029 12.4077 23.349 12.8308C24.1952 13.2539 24.9312 13.8682 25.4988 14.625C25.6482 14.8239 25.8704 14.9553 26.1167 14.9904C26.3629 15.0254 26.613 14.9612 26.8119 14.8119C27.0108 14.6626 27.1423 14.4403 27.1773 14.1941C27.2124 13.9478 27.1482 13.6977 26.9988 13.4988C26.169 12.3863 25.0624 11.5104 23.7891 10.9582C24.4871 10.3209 24.9762 9.48736 25.1921 8.5671C25.408 7.64683 25.3406 6.68279 24.9988 5.8015C24.657 4.92021 24.0568 4.16284 23.2769 3.62879C22.4969 3.09474 21.5738 2.80896 20.6285 2.80896C19.6833 2.80896 18.7601 3.09474 17.9802 3.62879C17.2002 4.16284 16.6 4.92021 16.2582 5.8015C15.9164 6.68279 15.849 7.64683 16.0649 8.5671C16.2808 9.48736 16.7699 10.3209 17.468 10.9582C16.5486 11.3558 15.7134 11.9249 15.007 12.6351C14.3007 11.9249 13.4655 11.3558 12.5461 10.9582C13.2442 10.3209 13.7332 9.48736 13.9491 8.5671C14.165 7.64683 14.0977 6.68279 13.7559 5.8015C13.4141 4.92021 12.8138 4.16284 12.0339 3.62879C11.254 3.09474 10.3308 2.80896 9.38555 2.80896C8.44029 2.80896 7.51713 3.09474 6.7372 3.62879C5.95726 4.16284 5.35701 4.92021 5.01522 5.8015C4.67342 6.68279 4.60605 7.64683 4.82195 8.5671C5.03785 9.48736 5.52693 10.3209 6.225 10.9582C4.94608 11.5086 3.83402 12.3851 3 13.5C2.92613 13.5985 2.87239 13.7106 2.84183 13.8298C2.81128 13.9491 2.80451 14.0732 2.82192 14.1951C2.83933 14.3169 2.88058 14.4342 2.94331 14.5401C3.00603 14.6461 3.08901 14.7386 3.1875 14.8125ZM20.625 4.68749C21.1813 4.68749 21.725 4.85244 22.1875 5.16148C22.6501 5.47052 23.0105 5.90978 23.2234 6.42369C23.4363 6.93761 23.492 7.50311 23.3835 8.04868C23.2749 8.59425 23.0071 9.09539 22.6137 9.48873C22.2204 9.88206 21.7193 10.1499 21.1737 10.2584C20.6281 10.367 20.0626 10.3113 19.5487 10.0984C19.0348 9.88553 18.5955 9.52504 18.2865 9.06253C17.9774 8.60002 17.8125 8.05625 17.8125 7.49999C17.8125 6.75407 18.1088 6.0387 18.6363 5.51125C19.1637 4.98381 19.8791 4.68749 20.625 4.68749ZM9.375 4.68749C9.93126 4.68749 10.475 4.85244 10.9375 5.16148C11.4001 5.47052 11.7605 5.90978 11.9734 6.42369C12.1863 6.93761 12.242 7.50311 12.1335 8.04868C12.0249 8.59425 11.7571 9.09539 11.3637 9.48873C10.9704 9.88206 10.4693 10.1499 9.92369 10.2584C9.37812 10.367 8.81262 10.3113 8.2987 10.0984C7.78479 9.88553 7.34553 9.52504 7.03649 9.06253C6.72745 8.60002 6.5625 8.05625 6.5625 7.49999C6.5625 6.75407 6.85882 6.0387 7.38626 5.51125C7.91371 4.98381 8.62908 4.68749 9.375 4.68749ZM23.7891 23.1457C24.4871 22.5084 24.9762 21.6749 25.1921 20.7546C25.408 19.8343 25.3406 18.8703 24.9988 17.989C24.657 17.1077 24.0568 16.3503 23.2769 15.8163C22.4969 15.2822 21.5738 14.9965 20.6285 14.9965C19.6833 14.9965 18.7601 15.2822 17.9802 15.8163C17.2002 16.3503 16.6 17.1077 16.2582 17.989C15.9164 18.8703 15.849 19.8343 16.0649 20.7546C16.2808 21.6749 16.7699 22.5084 17.468 23.1457C16.5486 23.5432 15.7134 24.1124 15.007 24.8226C14.3007 24.1124 13.4655 23.5432 12.5461 23.1457C13.2442 22.5084 13.7332 21.6749 13.9491 20.7546C14.165 19.8343 14.0977 18.8703 13.7559 17.989C13.4141 17.1077 12.8138 16.3503 12.0339 15.8163C11.254 15.2822 10.3308 14.9965 9.38555 14.9965C8.44029 14.9965 7.51713 15.2822 6.7372 15.8163C5.95726 16.3503 5.35701 17.1077 5.01522 17.989C4.67342 18.8703 4.60605 19.8343 4.82195 20.7546C5.03785 21.6749 5.52693 22.5084 6.225 23.1457C4.94608 23.6961 3.83402 24.5726 3 25.6875C2.92613 25.786 2.87239 25.8981 2.84183 26.0173C2.81128 26.1366 2.80451 26.2607 2.82192 26.3826C2.83933 26.5044 2.88058 26.6217 2.94331 26.7276C3.00603 26.8336 3.08901 26.9261 3.1875 27C3.28599 27.0739 3.39807 27.1276 3.51733 27.1582C3.63659 27.1887 3.76071 27.1955 3.88258 27.1781C4.00446 27.1607 4.12171 27.1194 4.22765 27.0567C4.33359 26.994 4.42613 26.911 4.5 26.8125C5.06762 26.0557 5.80364 25.4414 6.64979 25.0183C7.49594 24.5952 8.42897 24.375 9.375 24.375C10.321 24.375 11.2541 24.5952 12.1002 25.0183C12.9464 25.4414 13.6824 26.0557 14.25 26.8125C14.3994 27.0112 14.6215 27.1425 14.8677 27.1774C15.1138 27.2124 15.3637 27.1481 15.5625 26.9988C15.6334 26.9461 15.6961 26.8833 15.7488 26.8125C16.3164 26.0557 17.0525 25.4414 17.8986 25.0183C18.7448 24.5952 19.6778 24.375 20.6238 24.375C21.5699 24.375 22.5029 24.5952 23.349 25.0183C24.1952 25.4414 24.9312 26.0557 25.4988 26.8125C25.6482 27.0114 25.8704 27.1428 26.1167 27.1779C26.3629 27.2129 26.613 27.1487 26.8119 26.9994C27.0108 26.8501 27.1423 26.6278 27.1773 26.3816C27.2124 26.1353 27.1482 25.8852 26.9988 25.6863C26.169 24.5738 25.0624 23.6979 23.7891 23.1457ZM9.375 16.875C9.93126 16.875 10.475 17.0399 10.9375 17.349C11.4001 17.658 11.7605 18.0973 11.9734 18.6112C12.1863 19.1251 12.242 19.6906 12.1335 20.2362C12.0249 20.7818 11.7571 21.2829 11.3637 21.6762C10.9704 22.0696 10.4693 22.3374 9.92369 22.4459C9.37812 22.5545 8.81262 22.4988 8.2987 22.2859C7.78479 22.073 7.34553 21.7125 7.03649 21.25C6.72745 20.7875 6.5625 20.2437 6.5625 19.6875C6.5625 18.9416 6.85882 18.2262 7.38626 17.6988C7.91371 17.1713 8.62908 16.875 9.375 16.875ZM20.625 16.875C21.1813 16.875 21.725 17.0399 22.1875 17.349C22.6501 17.658 23.0105 18.0973 23.2234 18.6112C23.4363 19.1251 23.492 19.6906 23.3835 20.2362C23.2749 20.7818 23.0071 21.2829 22.6137 21.6762C22.2204 22.0696 21.7193 22.3374 21.1737 22.4459C20.6281 22.5545 20.0626 22.4988 19.5487 22.2859C19.0348 22.073 18.5955 21.7125 18.2865 21.25C17.9774 20.7875 17.8125 20.2437 17.8125 19.6875C17.8125 18.9416 18.1088 18.2262 18.6363 17.6988C19.1637 17.1713 19.8791 16.875 20.625 16.875Z" fill="white"/>
</svg>
