<svg width="30" height="30" viewBox="0 0 30 30" fill="none" xmlns="http://www.w3.org/2000/svg">
<path d="M28.5094 7.99689L25.6969 5.23595C25.3454 4.88566 24.8694 4.68896 24.3732 4.68896C23.877 4.68896 23.4011 4.88566 23.0496 5.23595L12.1875 15.9645L7.88788 11.7926C7.53571 11.4434 7.05955 11.248 6.56363 11.2491C6.0677 11.2502 5.59242 11.4477 5.24179 11.7985L2.42929 14.611C2.07828 14.9625 1.88113 15.439 1.88113 15.9358C1.88113 16.4325 2.07828 16.909 2.42929 17.2606L10.8223 25.6981C10.9964 25.8722 11.2031 26.0104 11.4306 26.1046C11.6581 26.1989 11.902 26.2474 12.1482 26.2474C12.3945 26.2474 12.6384 26.1989 12.8659 26.1046C13.0934 26.0104 13.3001 25.8722 13.4742 25.6981L28.5152 10.6535C28.6897 10.4789 28.828 10.2716 28.9222 10.0435C29.0163 9.81532 29.0645 9.57081 29.064 9.32399C29.0634 9.07717 29.0142 8.83288 28.919 8.60514C28.8238 8.37741 28.6846 8.1707 28.5094 7.99689ZM12.143 24.375L3.74999 15.9375L6.56249 13.125C6.56591 13.1278 6.56904 13.131 6.57187 13.1344L11.5348 17.9496C11.71 18.121 11.9453 18.217 12.1904 18.217C12.4355 18.217 12.6709 18.121 12.8461 17.9496L24.382 6.56251L27.1875 9.32814L12.143 24.375Z" fill="white"/>
</svg>
